<mxfile modified="2019-10-29T11:44:11.102Z" host="www.draw.io" agent="Mozilla/5.0 (Windows NT 10.0; Win64; x64) AppleWebKit/537.36 (KHTML, like Gecko) Chrome/77.0.3865.120 Safari/537.36" etag="1HESE_NQjfwhOgckoBya" version="12.1.8" type="github" pages="14">
  <diagram id="ZAqHVKBO3mxk9_R7XnRH" name="Segments by Country">
    <mxGraphModel dx="526" dy="322" grid="1" gridSize="10" guides="1" tooltips="1" connect="1" arrows="1" fold="1" page="1" pageScale="1" pageWidth="827" pageHeight="1169" math="0" shadow="0">
      <root>
        <mxCell id="0"/>
        <mxCell id="1" parent="0"/>
        <mxCell id="C-BNwN-aX1knpNmEbtPw-8" value="&lt;b&gt;&lt;font style=&quot;font-size: 19px&quot;&gt;B2C&lt;/font&gt;&lt;/b&gt;" style="rounded=1;whiteSpace=wrap;html=1;verticalAlign=top;fillColor=#eeeeee;strokeColor=none;glass=0;comic=0;perimeterSpacing=3;arcSize=5;" parent="1" vertex="1">
          <mxGeometry x="578" y="40" width="132" height="410" as="geometry"/>
        </mxCell>
        <mxCell id="h3p3pEocYEC31KhZvrrD-1" value="&lt;b&gt;&lt;font style=&quot;font-size: 19px&quot;&gt;B2B&lt;/font&gt;&lt;/b&gt;" style="rounded=1;whiteSpace=wrap;html=1;verticalAlign=top;fillColor=#eeeeee;strokeColor=none;glass=0;comic=0;perimeterSpacing=3;arcSize=3;" parent="1" vertex="1">
          <mxGeometry x="80" y="40" width="490" height="410" as="geometry"/>
        </mxCell>
        <mxCell id="h3p3pEocYEC31KhZvrrD-3" value="&lt;font style=&quot;font-size: 14px&quot;&gt;Project&lt;/font&gt;" style="rounded=1;whiteSpace=wrap;html=1;fillColor=#ffcc99;strokeColor=none;verticalAlign=top;fontStyle=1" parent="1" vertex="1">
          <mxGeometry x="85" y="80" width="80" height="360" as="geometry"/>
        </mxCell>
        <mxCell id="C-BNwN-aX1knpNmEbtPw-9" value="&lt;font style=&quot;font-size: 14px&quot;&gt;House Builders&lt;/font&gt;" style="rounded=1;whiteSpace=wrap;html=1;fillColor=#ffcc99;strokeColor=none;verticalAlign=top;fontStyle=1" parent="1" vertex="1">
          <mxGeometry x="173" y="80" width="80" height="360" as="geometry"/>
        </mxCell>
        <mxCell id="C-BNwN-aX1knpNmEbtPw-10" value="&lt;font style=&quot;font-size: 14px&quot;&gt;Social Housing&lt;/font&gt;" style="rounded=1;whiteSpace=wrap;html=1;fillColor=#ffcc99;strokeColor=none;verticalAlign=top;fontStyle=1" parent="1" vertex="1">
          <mxGeometry x="262" y="80" width="80" height="360" as="geometry"/>
        </mxCell>
        <mxCell id="C-BNwN-aX1knpNmEbtPw-11" value="&lt;font style=&quot;font-size: 14px&quot;&gt;Tradesmen&lt;/font&gt;" style="rounded=1;whiteSpace=wrap;html=1;fillColor=#ffcc99;strokeColor=none;verticalAlign=top;fontStyle=1" parent="1" vertex="1">
          <mxGeometry x="353" y="80" width="97" height="360" as="geometry"/>
        </mxCell>
        <mxCell id="C-BNwN-aX1knpNmEbtPw-12" value="&lt;font style=&quot;font-size: 14px&quot;&gt;Franchise/&lt;br&gt;Dealers&lt;br&gt;&lt;/font&gt;" style="rounded=1;whiteSpace=wrap;html=1;fillColor=#ffcc99;strokeColor=none;verticalAlign=top;fontStyle=1" parent="1" vertex="1">
          <mxGeometry x="460" y="80" width="99" height="360" as="geometry"/>
        </mxCell>
        <mxCell id="C-BNwN-aX1knpNmEbtPw-13" value="&lt;font style=&quot;font-size: 14px&quot;&gt;Retail&lt;/font&gt;" style="rounded=1;whiteSpace=wrap;html=1;fillColor=#ffcc99;strokeColor=none;verticalAlign=top;fontStyle=1" parent="1" vertex="1">
          <mxGeometry x="588" y="80" width="110" height="360" as="geometry"/>
        </mxCell>
        <mxCell id="C-BNwN-aX1knpNmEbtPw-3" value="&lt;font style=&quot;font-size: 18px&quot;&gt;Denmark&lt;/font&gt;" style="rounded=1;whiteSpace=wrap;html=1;align=left;fillColor=#ffcccc;strokeColor=#36393d;opacity=30;fontStyle=1" parent="1" vertex="1">
          <mxGeometry y="141" width="720" height="60" as="geometry"/>
        </mxCell>
        <mxCell id="C-BNwN-aX1knpNmEbtPw-14" value="&lt;font style=&quot;font-size: 18px&quot;&gt;Finland&lt;/font&gt;" style="rounded=1;whiteSpace=wrap;html=1;align=left;fillColor=#ffcccc;strokeColor=#36393d;opacity=30;fontStyle=1" parent="1" vertex="1">
          <mxGeometry y="212" width="720" height="60" as="geometry"/>
        </mxCell>
        <mxCell id="C-BNwN-aX1knpNmEbtPw-15" value="&lt;font style=&quot;font-size: 18px&quot;&gt;Norway&lt;/font&gt;" style="rounded=1;whiteSpace=wrap;html=1;align=left;fillColor=#ffcccc;strokeColor=#36393d;opacity=30;fontStyle=1" parent="1" vertex="1">
          <mxGeometry y="285" width="720" height="60" as="geometry"/>
        </mxCell>
        <mxCell id="C-BNwN-aX1knpNmEbtPw-16" value="&lt;font style=&quot;font-size: 18px&quot;&gt;Sweden&lt;/font&gt;" style="rounded=1;whiteSpace=wrap;html=1;align=left;fillColor=#ffcccc;strokeColor=#36393d;opacity=30;fontStyle=1" parent="1" vertex="1">
          <mxGeometry y="360" width="720" height="60" as="geometry"/>
        </mxCell>
        <mxCell id="C-BNwN-aX1knpNmEbtPw-20" value="" style="shape=image;html=1;verticalAlign=top;verticalLabelPosition=bottom;labelBackgroundColor=#ffffff;imageAspect=0;aspect=fixed;image=https://cdn0.iconfinder.com/data/icons/free-daily-icon-set/512/Tick-128.png;glass=0;comic=0;opacity=70;align=left;" parent="1" vertex="1">
          <mxGeometry x="99.5" y="144.5" width="51" height="51" as="geometry"/>
        </mxCell>
        <mxCell id="C-BNwN-aX1knpNmEbtPw-21" value="" style="shape=image;html=1;verticalAlign=top;verticalLabelPosition=bottom;labelBackgroundColor=#ffffff;imageAspect=0;aspect=fixed;image=https://cdn0.iconfinder.com/data/icons/free-daily-icon-set/512/Tick-128.png;glass=0;comic=0;opacity=70;align=left;" parent="1" vertex="1">
          <mxGeometry x="187" y="144.5" width="51" height="51" as="geometry"/>
        </mxCell>
        <mxCell id="C-BNwN-aX1knpNmEbtPw-22" value="" style="shape=image;html=1;verticalAlign=top;verticalLabelPosition=bottom;labelBackgroundColor=#ffffff;imageAspect=0;aspect=fixed;image=https://cdn0.iconfinder.com/data/icons/free-daily-icon-set/512/Tick-128.png;glass=0;comic=0;opacity=70;align=left;" parent="1" vertex="1">
          <mxGeometry x="276.5" y="144.5" width="51" height="51" as="geometry"/>
        </mxCell>
        <mxCell id="C-BNwN-aX1knpNmEbtPw-23" value="" style="shape=image;html=1;verticalAlign=top;verticalLabelPosition=bottom;labelBackgroundColor=#ffffff;imageAspect=0;aspect=fixed;image=https://cdn0.iconfinder.com/data/icons/free-daily-icon-set/512/Tick-128.png;glass=0;comic=0;opacity=70;align=left;" parent="1" vertex="1">
          <mxGeometry x="372.5" y="144.5" width="51" height="51" as="geometry"/>
        </mxCell>
        <mxCell id="C-BNwN-aX1knpNmEbtPw-24" value="" style="shape=image;html=1;verticalAlign=top;verticalLabelPosition=bottom;labelBackgroundColor=#ffffff;imageAspect=0;aspect=fixed;image=https://cdn0.iconfinder.com/data/icons/free-daily-icon-set/512/Tick-128.png;glass=0;comic=0;opacity=70;align=left;" parent="1" vertex="1">
          <mxGeometry x="478.5" y="144.5" width="51" height="51" as="geometry"/>
        </mxCell>
        <mxCell id="C-BNwN-aX1knpNmEbtPw-25" value="" style="shape=image;html=1;verticalAlign=top;verticalLabelPosition=bottom;labelBackgroundColor=#ffffff;imageAspect=0;aspect=fixed;image=https://cdn0.iconfinder.com/data/icons/free-daily-icon-set/512/Tick-128.png;glass=0;comic=0;opacity=70;align=left;" parent="1" vertex="1">
          <mxGeometry x="617.5" y="144.5" width="51" height="51" as="geometry"/>
        </mxCell>
        <mxCell id="C-BNwN-aX1knpNmEbtPw-27" value="" style="shape=image;html=1;verticalAlign=top;verticalLabelPosition=bottom;labelBackgroundColor=#ffffff;imageAspect=0;aspect=fixed;image=https://cdn0.iconfinder.com/data/icons/free-daily-icon-set/512/Tick-128.png;glass=0;comic=0;opacity=70;align=left;" parent="1" vertex="1">
          <mxGeometry x="99.5" y="215" width="51" height="51" as="geometry"/>
        </mxCell>
        <mxCell id="C-BNwN-aX1knpNmEbtPw-33" value="" style="shape=image;html=1;verticalAlign=top;verticalLabelPosition=bottom;labelBackgroundColor=#ffffff;imageAspect=0;aspect=fixed;image=https://cdn0.iconfinder.com/data/icons/feather/96/circle-cross-128.png;glass=0;comic=0;opacity=70;align=left;" parent="1" vertex="1">
          <mxGeometry x="277.5" y="288.5" width="49" height="49" as="geometry"/>
        </mxCell>
        <mxCell id="C-BNwN-aX1knpNmEbtPw-34" value="" style="shape=image;html=1;verticalAlign=top;verticalLabelPosition=bottom;labelBackgroundColor=#ffffff;imageAspect=0;aspect=fixed;image=https://cdn0.iconfinder.com/data/icons/feather/96/circle-cross-128.png;glass=0;comic=0;opacity=70;align=left;" parent="1" vertex="1">
          <mxGeometry x="373.5" y="288.5" width="49" height="49" as="geometry"/>
        </mxCell>
        <mxCell id="C-BNwN-aX1knpNmEbtPw-35" value="" style="shape=image;html=1;verticalAlign=top;verticalLabelPosition=bottom;labelBackgroundColor=#ffffff;imageAspect=0;aspect=fixed;image=https://cdn0.iconfinder.com/data/icons/free-daily-icon-set/512/Tick-128.png;glass=0;comic=0;opacity=70;align=left;" parent="1" vertex="1">
          <mxGeometry x="478.5" y="287.5" width="51" height="51" as="geometry"/>
        </mxCell>
        <mxCell id="C-BNwN-aX1knpNmEbtPw-36" value="" style="shape=image;html=1;verticalAlign=top;verticalLabelPosition=bottom;labelBackgroundColor=#ffffff;imageAspect=0;aspect=fixed;image=https://cdn0.iconfinder.com/data/icons/feather/96/circle-cross-128.png;glass=0;comic=0;opacity=70;align=left;" parent="1" vertex="1">
          <mxGeometry x="618.5" y="288.5" width="49" height="49" as="geometry"/>
        </mxCell>
        <mxCell id="C-BNwN-aX1knpNmEbtPw-37" value="" style="shape=image;html=1;verticalAlign=top;verticalLabelPosition=bottom;labelBackgroundColor=#ffffff;imageAspect=0;aspect=fixed;image=https://cdn0.iconfinder.com/data/icons/free-daily-icon-set/512/Tick-128.png;glass=0;comic=0;opacity=70;align=left;" parent="1" vertex="1">
          <mxGeometry x="99.5" y="369" width="51" height="51" as="geometry"/>
        </mxCell>
        <mxCell id="C-BNwN-aX1knpNmEbtPw-38" value="" style="shape=image;html=1;verticalAlign=top;verticalLabelPosition=bottom;labelBackgroundColor=#ffffff;imageAspect=0;aspect=fixed;image=https://cdn0.iconfinder.com/data/icons/free-daily-icon-set/512/Tick-128.png;glass=0;comic=0;opacity=70;align=left;" parent="1" vertex="1">
          <mxGeometry x="187" y="369" width="51" height="51" as="geometry"/>
        </mxCell>
        <mxCell id="C-BNwN-aX1knpNmEbtPw-40" value="" style="shape=image;html=1;verticalAlign=top;verticalLabelPosition=bottom;labelBackgroundColor=#ffffff;imageAspect=0;aspect=fixed;image=https://cdn0.iconfinder.com/data/icons/feather/96/circle-cross-128.png;glass=0;comic=0;opacity=70;align=left;" parent="1" vertex="1">
          <mxGeometry x="277.5" y="370" width="49" height="49" as="geometry"/>
        </mxCell>
        <mxCell id="C-BNwN-aX1knpNmEbtPw-42" value="" style="shape=image;html=1;verticalAlign=top;verticalLabelPosition=bottom;labelBackgroundColor=#ffffff;imageAspect=0;aspect=fixed;image=https://cdn0.iconfinder.com/data/icons/free-daily-icon-set/512/Tick-128.png;glass=0;comic=0;opacity=70;align=left;" parent="1" vertex="1">
          <mxGeometry x="478.5" y="369" width="51" height="51" as="geometry"/>
        </mxCell>
        <mxCell id="C-BNwN-aX1knpNmEbtPw-43" value="" style="shape=image;html=1;verticalAlign=top;verticalLabelPosition=bottom;labelBackgroundColor=#ffffff;imageAspect=0;aspect=fixed;image=https://cdn0.iconfinder.com/data/icons/feather/96/circle-cross-128.png;glass=0;comic=0;opacity=70;align=left;" parent="1" vertex="1">
          <mxGeometry x="618.5" y="370" width="49" height="49" as="geometry"/>
        </mxCell>
        <mxCell id="5LenzFSkKdElUdlF8JKO-1" value="" style="shape=image;html=1;verticalAlign=top;verticalLabelPosition=bottom;labelBackgroundColor=#ffffff;imageAspect=0;aspect=fixed;image=https://cdn0.iconfinder.com/data/icons/free-daily-icon-set/512/Tick-128.png;glass=0;comic=0;opacity=70;align=left;" parent="1" vertex="1">
          <mxGeometry x="372.5" y="369" width="51" height="51" as="geometry"/>
        </mxCell>
        <mxCell id="AWYyIcOw-wR34jWp_eGs-1" value="" style="shape=image;html=1;verticalAlign=top;verticalLabelPosition=bottom;labelBackgroundColor=#ffffff;imageAspect=0;aspect=fixed;image=https://cdn0.iconfinder.com/data/icons/feather/96/circle-cross-128.png;glass=0;comic=0;opacity=70;align=left;" parent="1" vertex="1">
          <mxGeometry x="187" y="290.5" width="49" height="49" as="geometry"/>
        </mxCell>
        <mxCell id="AWYyIcOw-wR34jWp_eGs-2" value="" style="shape=image;html=1;verticalAlign=top;verticalLabelPosition=bottom;labelBackgroundColor=#ffffff;imageAspect=0;aspect=fixed;image=https://cdn0.iconfinder.com/data/icons/feather/96/circle-cross-128.png;glass=0;comic=0;opacity=70;align=left;" parent="1" vertex="1">
          <mxGeometry x="99.5" y="288.5" width="49" height="49" as="geometry"/>
        </mxCell>
        <mxCell id="T1M9CIDYmbbRIdoEwLEd-1" value="" style="shape=image;html=1;verticalAlign=top;verticalLabelPosition=bottom;labelBackgroundColor=#ffffff;imageAspect=0;aspect=fixed;image=https://cdn0.iconfinder.com/data/icons/free-daily-icon-set/512/Tick-128.png;glass=0;comic=0;opacity=70;align=left;" vertex="1" parent="1">
          <mxGeometry x="187" y="215" width="51" height="51" as="geometry"/>
        </mxCell>
        <mxCell id="T1M9CIDYmbbRIdoEwLEd-2" value="" style="shape=image;html=1;verticalAlign=top;verticalLabelPosition=bottom;labelBackgroundColor=#ffffff;imageAspect=0;aspect=fixed;image=https://cdn0.iconfinder.com/data/icons/free-daily-icon-set/512/Tick-128.png;glass=0;comic=0;opacity=70;align=left;" vertex="1" parent="1">
          <mxGeometry x="274" y="215" width="51" height="51" as="geometry"/>
        </mxCell>
        <mxCell id="T1M9CIDYmbbRIdoEwLEd-3" value="" style="shape=image;html=1;verticalAlign=top;verticalLabelPosition=bottom;labelBackgroundColor=#ffffff;imageAspect=0;aspect=fixed;image=https://cdn0.iconfinder.com/data/icons/free-daily-icon-set/512/Tick-128.png;glass=0;comic=0;opacity=70;align=left;" vertex="1" parent="1">
          <mxGeometry x="373.5" y="215" width="51" height="51" as="geometry"/>
        </mxCell>
        <mxCell id="T1M9CIDYmbbRIdoEwLEd-4" value="" style="shape=image;html=1;verticalAlign=top;verticalLabelPosition=bottom;labelBackgroundColor=#ffffff;imageAspect=0;aspect=fixed;image=https://cdn0.iconfinder.com/data/icons/free-daily-icon-set/512/Tick-128.png;glass=0;comic=0;opacity=70;align=left;" vertex="1" parent="1">
          <mxGeometry x="478.5" y="215" width="51" height="51" as="geometry"/>
        </mxCell>
        <mxCell id="T1M9CIDYmbbRIdoEwLEd-5" value="" style="shape=image;html=1;verticalAlign=top;verticalLabelPosition=bottom;labelBackgroundColor=#ffffff;imageAspect=0;aspect=fixed;image=https://cdn0.iconfinder.com/data/icons/feather/96/circle-cross-128.png;glass=0;comic=0;opacity=70;align=left;" vertex="1" parent="1">
          <mxGeometry x="617.5" y="220.5" width="49" height="49" as="geometry"/>
        </mxCell>
      </root>
    </mxGraphModel>
  </diagram>
  <diagram name="Segments Sweden Start" id="Mj_kJf1Mj7Kjcx8gMgXE">
    <mxGraphModel dx="925" dy="502" grid="1" gridSize="10" guides="1" tooltips="1" connect="1" arrows="1" fold="1" page="1" pageScale="1" pageWidth="827" pageHeight="1169" math="0" shadow="0">
      <root>
        <mxCell id="Bn4nens0UOqksBhGr8v3-0"/>
        <mxCell id="Bn4nens0UOqksBhGr8v3-1" parent="Bn4nens0UOqksBhGr8v3-0"/>
        <mxCell id="Bn4nens0UOqksBhGr8v3-42" value="&lt;b&gt;&lt;font style=&quot;font-size: 19px&quot;&gt;B2C&lt;/font&gt;&lt;/b&gt;" style="rounded=1;whiteSpace=wrap;html=1;verticalAlign=top;fillColor=#eeeeee;strokeColor=none;glass=0;comic=0;perimeterSpacing=3;arcSize=3;" vertex="1" parent="Bn4nens0UOqksBhGr8v3-1">
          <mxGeometry x="455" width="130" height="230" as="geometry"/>
        </mxCell>
        <mxCell id="Bn4nens0UOqksBhGr8v3-3" value="&lt;b&gt;&lt;font style=&quot;font-size: 19px&quot;&gt;B2B&lt;/font&gt;&lt;/b&gt;" style="rounded=1;whiteSpace=wrap;html=1;verticalAlign=top;fillColor=#eeeeee;strokeColor=none;glass=0;comic=0;perimeterSpacing=3;arcSize=3;" vertex="1" parent="Bn4nens0UOqksBhGr8v3-1">
          <mxGeometry x="78" width="367" height="230" as="geometry"/>
        </mxCell>
        <mxCell id="Bn4nens0UOqksBhGr8v3-8" value="&lt;font style=&quot;font-size: 14px&quot;&gt;Franchise/&lt;br&gt;Dealers&lt;br&gt;&lt;/font&gt;" style="rounded=1;whiteSpace=wrap;html=1;fillColor=#ffcc99;strokeColor=none;verticalAlign=top;fontStyle=1;arcSize=7;" vertex="1" parent="Bn4nens0UOqksBhGr8v3-1">
          <mxGeometry x="180" y="40" width="245" height="180" as="geometry"/>
        </mxCell>
        <mxCell id="Bn4nens0UOqksBhGr8v3-41" value="&lt;font style=&quot;font-size: 14px&quot;&gt;Project&lt;/font&gt;" style="rounded=1;whiteSpace=wrap;html=1;fillColor=#ffcc99;strokeColor=#000000;verticalAlign=top;fontStyle=1" vertex="1" parent="Bn4nens0UOqksBhGr8v3-1">
          <mxGeometry x="190" y="100" width="105" height="100" as="geometry"/>
        </mxCell>
        <mxCell id="Bn4nens0UOqksBhGr8v3-4" value="&lt;font style=&quot;font-size: 14px&quot;&gt;Project&lt;/font&gt;" style="rounded=1;whiteSpace=wrap;html=1;fillColor=#ffcc99;strokeColor=none;verticalAlign=top;fontStyle=1" vertex="1" parent="Bn4nens0UOqksBhGr8v3-1">
          <mxGeometry x="91" y="40" width="69" height="180" as="geometry"/>
        </mxCell>
        <mxCell id="Bn4nens0UOqksBhGr8v3-7" value="&lt;font style=&quot;font-size: 14px&quot;&gt;Retail&lt;/font&gt;" style="rounded=1;whiteSpace=wrap;html=1;fillColor=#ffcc99;strokeColor=none;verticalAlign=top;fontStyle=1" vertex="1" parent="Bn4nens0UOqksBhGr8v3-1">
          <mxGeometry x="472" y="40" width="97" height="180" as="geometry"/>
        </mxCell>
        <mxCell id="Bn4nens0UOqksBhGr8v3-9" value="&lt;font style=&quot;font-size: 14px&quot;&gt;Retail&lt;/font&gt;" style="rounded=1;whiteSpace=wrap;html=1;fillColor=#ffcc99;strokeColor=#000000;verticalAlign=top;fontStyle=1" vertex="1" parent="Bn4nens0UOqksBhGr8v3-1">
          <mxGeometry x="310" y="100" width="105" height="100" as="geometry"/>
        </mxCell>
        <mxCell id="Bn4nens0UOqksBhGr8v3-13" value="&lt;font style=&quot;font-size: 18px&quot;&gt;Sweden&lt;/font&gt;" style="rounded=1;whiteSpace=wrap;html=1;align=left;fillColor=#ffcccc;strokeColor=#36393d;opacity=30;fontStyle=1" vertex="1" parent="Bn4nens0UOqksBhGr8v3-1">
          <mxGeometry x="5" y="130" width="600" height="60" as="geometry"/>
        </mxCell>
        <mxCell id="Bn4nens0UOqksBhGr8v3-30" value="" style="shape=image;html=1;verticalAlign=top;verticalLabelPosition=bottom;labelBackgroundColor=#ffffff;imageAspect=0;aspect=fixed;image=https://cdn0.iconfinder.com/data/icons/free-daily-icon-set/512/Tick-128.png;glass=0;comic=0;opacity=70;align=left;" vertex="1" parent="Bn4nens0UOqksBhGr8v3-1">
          <mxGeometry x="98.5" y="139" width="51" height="51" as="geometry"/>
        </mxCell>
        <mxCell id="Bn4nens0UOqksBhGr8v3-31" value="" style="shape=image;html=1;verticalAlign=top;verticalLabelPosition=bottom;labelBackgroundColor=#ffffff;imageAspect=0;aspect=fixed;image=https://cdn0.iconfinder.com/data/icons/free-daily-icon-set/512/Tick-128.png;glass=0;comic=0;opacity=70;align=left;" vertex="1" parent="Bn4nens0UOqksBhGr8v3-1">
          <mxGeometry x="215" y="139" width="51" height="51" as="geometry"/>
        </mxCell>
        <mxCell id="piebpj3bdkJP3-VJSoIh-0" value="" style="shape=image;html=1;verticalAlign=top;verticalLabelPosition=bottom;labelBackgroundColor=#ffffff;imageAspect=0;aspect=fixed;image=https://cdn0.iconfinder.com/data/icons/feather/96/circle-cross-128.png;glass=0;comic=0;opacity=70;align=left;" vertex="1" parent="Bn4nens0UOqksBhGr8v3-1">
          <mxGeometry x="495" y="135.5" width="49" height="49" as="geometry"/>
        </mxCell>
        <mxCell id="piebpj3bdkJP3-VJSoIh-1" value="" style="shape=image;html=1;verticalAlign=top;verticalLabelPosition=bottom;labelBackgroundColor=#ffffff;imageAspect=0;aspect=fixed;image=https://cdn0.iconfinder.com/data/icons/free-daily-icon-set/512/Tick-128.png;glass=0;comic=0;opacity=70;align=left;" vertex="1" parent="Bn4nens0UOqksBhGr8v3-1">
          <mxGeometry x="335" y="135.5" width="51" height="51" as="geometry"/>
        </mxCell>
      </root>
    </mxGraphModel>
  </diagram>
  <diagram name="Project Denmark" id="iC9wvgN5D4B3VW_NFyv-">
    <mxGraphModel dx="1752" dy="502" grid="1" gridSize="10" guides="1" tooltips="1" connect="1" arrows="1" fold="1" page="1" pageScale="1" pageWidth="827" pageHeight="1169" math="0" shadow="0">
      <root>
        <mxCell id="Wz7_cIUoPPiy18YW8usM-0"/>
        <mxCell id="Wz7_cIUoPPiy18YW8usM-1" parent="Wz7_cIUoPPiy18YW8usM-0"/>
        <mxCell id="Wz7_cIUoPPiy18YW8usM-2" value="&lt;font style=&quot;font-size: 14px&quot;&gt;Denmark&lt;/font&gt;" style="rounded=1;whiteSpace=wrap;html=1;fillColor=#ffcc99;strokeColor=none;verticalAlign=top;fontStyle=1;arcSize=5;" parent="Wz7_cIUoPPiy18YW8usM-1" vertex="1">
          <mxGeometry x="131" width="419" height="610" as="geometry"/>
        </mxCell>
        <mxCell id="Wz7_cIUoPPiy18YW8usM-19" value="" style="rounded=1;whiteSpace=wrap;html=1;align=left;fillColor=#ffcccc;strokeColor=#36393d;opacity=30;fontStyle=1" parent="Wz7_cIUoPPiy18YW8usM-1" vertex="1">
          <mxGeometry x="-20" y="539" width="590" height="60" as="geometry"/>
        </mxCell>
        <mxCell id="Wz7_cIUoPPiy18YW8usM-6" value="" style="rounded=1;whiteSpace=wrap;html=1;align=left;fillColor=#ffcccc;strokeColor=#36393d;opacity=30;fontStyle=1" parent="Wz7_cIUoPPiy18YW8usM-1" vertex="1">
          <mxGeometry x="-20" y="180" width="590" height="60" as="geometry"/>
        </mxCell>
        <mxCell id="Wz7_cIUoPPiy18YW8usM-7" value="" style="rounded=1;whiteSpace=wrap;html=1;align=left;fillColor=#ffcccc;strokeColor=#36393d;opacity=30;fontStyle=1" parent="Wz7_cIUoPPiy18YW8usM-1" vertex="1">
          <mxGeometry x="-20" y="40" width="590" height="60" as="geometry"/>
        </mxCell>
        <mxCell id="Wz7_cIUoPPiy18YW8usM-8" value="&lt;span style=&quot;font-size: 18px&quot;&gt;Planning and&amp;nbsp;&lt;br&gt;Control&lt;br&gt;&lt;/span&gt;" style="text;html=1;resizable=0;points=[];autosize=1;align=left;verticalAlign=top;spacingTop=-4;fontStyle=1" parent="Wz7_cIUoPPiy18YW8usM-1" vertex="1">
          <mxGeometry x="-9" y="54" width="130" height="30" as="geometry"/>
        </mxCell>
        <mxCell id="Wz7_cIUoPPiy18YW8usM-9" value="" style="rounded=1;whiteSpace=wrap;html=1;align=left;fillColor=#ffcccc;strokeColor=#36393d;opacity=30;fontStyle=1" parent="Wz7_cIUoPPiy18YW8usM-1" vertex="1">
          <mxGeometry x="-20" y="110" width="590" height="60" as="geometry"/>
        </mxCell>
        <mxCell id="Wz7_cIUoPPiy18YW8usM-10" value="&lt;span style=&quot;font-size: 18px&quot;&gt;Tender&lt;/span&gt;" style="text;html=1;resizable=0;points=[];autosize=1;align=left;verticalAlign=top;spacingTop=-4;fontStyle=1" parent="Wz7_cIUoPPiy18YW8usM-1" vertex="1">
          <mxGeometry x="-11" y="120" width="70" height="20" as="geometry"/>
        </mxCell>
        <mxCell id="Wz7_cIUoPPiy18YW8usM-11" value="" style="rounded=1;whiteSpace=wrap;html=1;align=left;fillColor=#ffcccc;strokeColor=#36393d;opacity=30;fontStyle=1" parent="Wz7_cIUoPPiy18YW8usM-1" vertex="1">
          <mxGeometry x="-20" y="252" width="590" height="60" as="geometry"/>
        </mxCell>
        <mxCell id="Wz7_cIUoPPiy18YW8usM-12" value="&lt;span style=&quot;font-size: 18px&quot;&gt;Order&lt;/span&gt;" style="text;html=1;resizable=0;points=[];autosize=1;align=left;verticalAlign=top;spacingTop=-4;fontStyle=1" parent="Wz7_cIUoPPiy18YW8usM-1" vertex="1">
          <mxGeometry x="-14" y="192" width="60" height="20" as="geometry"/>
        </mxCell>
        <mxCell id="Wz7_cIUoPPiy18YW8usM-13" value="&lt;span style=&quot;font-size: 18px&quot;&gt;Occupant&lt;br&gt;&lt;/span&gt;&lt;font style=&quot;font-size: 18px&quot;&gt;Customisations&lt;/font&gt;" style="text;html=1;resizable=0;points=[];autosize=1;align=left;verticalAlign=top;spacingTop=-4;fontStyle=1" parent="Wz7_cIUoPPiy18YW8usM-1" vertex="1">
          <mxGeometry x="-15" y="260" width="140" height="30" as="geometry"/>
        </mxCell>
        <mxCell id="Wz7_cIUoPPiy18YW8usM-14" value="" style="rounded=1;whiteSpace=wrap;html=1;align=left;fillColor=#ffcccc;strokeColor=#36393d;opacity=30;fontStyle=1" parent="Wz7_cIUoPPiy18YW8usM-1" vertex="1">
          <mxGeometry x="-20" y="330" width="590" height="60" as="geometry"/>
        </mxCell>
        <mxCell id="Wz7_cIUoPPiy18YW8usM-15" value="&lt;span style=&quot;font-size: 18px&quot;&gt;Delivery&lt;/span&gt;" style="text;html=1;resizable=0;points=[];autosize=1;align=left;verticalAlign=top;spacingTop=-4;fontStyle=1" parent="Wz7_cIUoPPiy18YW8usM-1" vertex="1">
          <mxGeometry x="-13" y="344" width="80" height="20" as="geometry"/>
        </mxCell>
        <mxCell id="Wz7_cIUoPPiy18YW8usM-16" value="" style="rounded=1;whiteSpace=wrap;html=1;align=left;fillColor=#ffcccc;strokeColor=#36393d;opacity=30;fontStyle=1" parent="Wz7_cIUoPPiy18YW8usM-1" vertex="1">
          <mxGeometry x="-20" y="400" width="590" height="60" as="geometry"/>
        </mxCell>
        <mxCell id="Wz7_cIUoPPiy18YW8usM-17" value="&lt;span style=&quot;font-size: 18px&quot;&gt;Installation&lt;/span&gt;" style="text;html=1;resizable=0;points=[];autosize=1;align=left;verticalAlign=top;spacingTop=-4;fontStyle=1" parent="Wz7_cIUoPPiy18YW8usM-1" vertex="1">
          <mxGeometry x="-10" y="415" width="100" height="20" as="geometry"/>
        </mxCell>
        <mxCell id="Wz7_cIUoPPiy18YW8usM-18" value="&lt;span style=&quot;font-size: 18px&quot;&gt;After Care&lt;/span&gt;" style="text;html=1;resizable=0;points=[];autosize=1;align=left;verticalAlign=top;spacingTop=-4;fontStyle=1" parent="Wz7_cIUoPPiy18YW8usM-1" vertex="1">
          <mxGeometry x="-14" y="552" width="100" height="20" as="geometry"/>
        </mxCell>
        <mxCell id="wqfr0U_CJhSZdWulmF0W-0" value="Create Customer File" style="rounded=1;whiteSpace=wrap;html=1;" parent="Wz7_cIUoPPiy18YW8usM-1" vertex="1">
          <mxGeometry x="140" y="45" width="90" height="50" as="geometry"/>
        </mxCell>
        <mxCell id="wqfr0U_CJhSZdWulmF0W-1" value="Case and Projects Handling" style="rounded=1;whiteSpace=wrap;html=1;" parent="Wz7_cIUoPPiy18YW8usM-1" vertex="1">
          <mxGeometry x="240" y="45" width="90" height="50" as="geometry"/>
        </mxCell>
        <mxCell id="wqfr0U_CJhSZdWulmF0W-2" value="Case Follow-Up" style="rounded=1;whiteSpace=wrap;html=1;" parent="Wz7_cIUoPPiy18YW8usM-1" vertex="1">
          <mxGeometry x="340" y="45" width="90" height="50" as="geometry"/>
        </mxCell>
        <mxCell id="wqfr0U_CJhSZdWulmF0W-3" value="Planning" style="rounded=1;whiteSpace=wrap;html=1;" parent="Wz7_cIUoPPiy18YW8usM-1" vertex="1">
          <mxGeometry x="440" y="45" width="90" height="50" as="geometry"/>
        </mxCell>
        <mxCell id="wqfr0U_CJhSZdWulmF0W-4" value="Create Quotation" style="rounded=1;whiteSpace=wrap;html=1;" parent="Wz7_cIUoPPiy18YW8usM-1" vertex="1">
          <mxGeometry x="140" y="112.5" width="90" height="50" as="geometry"/>
        </mxCell>
        <mxCell id="wqfr0U_CJhSZdWulmF0W-5" value="Negotiation" style="rounded=1;whiteSpace=wrap;html=1;" parent="Wz7_cIUoPPiy18YW8usM-1" vertex="1">
          <mxGeometry x="240" y="112.5" width="90" height="50" as="geometry"/>
        </mxCell>
        <mxCell id="wqfr0U_CJhSZdWulmF0W-6" value="Contract is Won" style="rounded=1;whiteSpace=wrap;html=1;" parent="Wz7_cIUoPPiy18YW8usM-1" vertex="1">
          <mxGeometry x="340" y="112.5" width="90" height="50" as="geometry"/>
        </mxCell>
        <mxCell id="wqfr0U_CJhSZdWulmF0W-7" value="Transform Quotation to Order" style="rounded=1;whiteSpace=wrap;html=1;" parent="Wz7_cIUoPPiy18YW8usM-1" vertex="1">
          <mxGeometry x="140" y="185" width="90" height="50" as="geometry"/>
        </mxCell>
        <mxCell id="wqfr0U_CJhSZdWulmF0W-8" value="Customer Meeting" style="rounded=1;whiteSpace=wrap;html=1;" parent="Wz7_cIUoPPiy18YW8usM-1" vertex="1">
          <mxGeometry x="140" y="257.5" width="90" height="50" as="geometry"/>
        </mxCell>
        <mxCell id="wqfr0U_CJhSZdWulmF0W-9" value="Delivery" style="rounded=1;whiteSpace=wrap;html=1;" parent="Wz7_cIUoPPiy18YW8usM-1" vertex="1">
          <mxGeometry x="140" y="335" width="90" height="50" as="geometry"/>
        </mxCell>
        <mxCell id="68cu8SrVIDcvFiEvH5j6-0" value="" style="shape=image;html=1;verticalAlign=top;verticalLabelPosition=bottom;labelBackgroundColor=#ffffff;imageAspect=0;aspect=fixed;image=https://cdn0.iconfinder.com/data/icons/feather/96/circle-cross-128.png;glass=0;comic=0;opacity=70;align=left;" parent="Wz7_cIUoPPiy18YW8usM-1" vertex="1">
          <mxGeometry x="160.5" y="403" width="49" height="49" as="geometry"/>
        </mxCell>
        <mxCell id="68cu8SrVIDcvFiEvH5j6-1" value="Aftersales" style="rounded=1;whiteSpace=wrap;html=1;" parent="Wz7_cIUoPPiy18YW8usM-1" vertex="1">
          <mxGeometry x="140" y="544" width="90" height="50" as="geometry"/>
        </mxCell>
        <mxCell id="68cu8SrVIDcvFiEvH5j6-2" value="1 Year Review" style="rounded=1;whiteSpace=wrap;html=1;" parent="Wz7_cIUoPPiy18YW8usM-1" vertex="1">
          <mxGeometry x="240" y="544" width="90" height="50" as="geometry"/>
        </mxCell>
        <mxCell id="68cu8SrVIDcvFiEvH5j6-3" value="5 Year Review" style="rounded=1;whiteSpace=wrap;html=1;" parent="Wz7_cIUoPPiy18YW8usM-1" vertex="1">
          <mxGeometry x="340" y="544" width="90" height="50" as="geometry"/>
        </mxCell>
        <mxCell id="c6mqZFeq_Pq1e5t57sX0-0" value="" style="rounded=1;whiteSpace=wrap;html=1;align=left;fillColor=#ffcccc;strokeColor=#36393d;opacity=30;fontStyle=1" parent="Wz7_cIUoPPiy18YW8usM-1" vertex="1">
          <mxGeometry x="-20" y="469" width="590" height="60" as="geometry"/>
        </mxCell>
        <mxCell id="c6mqZFeq_Pq1e5t57sX0-1" value="&lt;span style=&quot;font-size: 18px&quot;&gt;Billing&lt;/span&gt;" style="text;html=1;resizable=0;points=[];autosize=1;align=left;verticalAlign=top;spacingTop=-4;fontStyle=1" parent="Wz7_cIUoPPiy18YW8usM-1" vertex="1">
          <mxGeometry x="-10" y="484" width="60" height="20" as="geometry"/>
        </mxCell>
        <mxCell id="CNpl5-SrpL6-X3eDkVlU-0" value="" style="shape=image;html=1;verticalAlign=top;verticalLabelPosition=bottom;labelBackgroundColor=#ffffff;imageAspect=0;aspect=fixed;image=https://cdn0.iconfinder.com/data/icons/feather/96/circle-cross-128.png;glass=0;comic=0;opacity=70;align=left;" parent="Wz7_cIUoPPiy18YW8usM-1" vertex="1">
          <mxGeometry x="160.5" y="471" width="49" height="49" as="geometry"/>
        </mxCell>
      </root>
    </mxGraphModel>
  </diagram>
  <diagram name="Project Finland" id="74UnPvUorwmBePL_LZDL">
    <mxGraphModel dx="1752" dy="502" grid="1" gridSize="10" guides="1" tooltips="1" connect="1" arrows="1" fold="1" page="1" pageScale="1" pageWidth="827" pageHeight="1169" math="0" shadow="0">
      <root>
        <mxCell id="Epklxd3dy9E38l8vw2Ka-0"/>
        <mxCell id="Epklxd3dy9E38l8vw2Ka-1" parent="Epklxd3dy9E38l8vw2Ka-0"/>
        <mxCell id="Epklxd3dy9E38l8vw2Ka-2" value="&lt;font style=&quot;font-size: 14px&quot;&gt;Finland&lt;/font&gt;" style="rounded=1;whiteSpace=wrap;html=1;fillColor=#ffcc99;strokeColor=none;verticalAlign=top;fontStyle=1;arcSize=5;" parent="Epklxd3dy9E38l8vw2Ka-1" vertex="1">
          <mxGeometry x="131" width="419" height="610" as="geometry"/>
        </mxCell>
        <mxCell id="Epklxd3dy9E38l8vw2Ka-16" value="" style="rounded=1;whiteSpace=wrap;html=1;align=left;fillColor=#ffcccc;strokeColor=#36393d;opacity=30;fontStyle=1" parent="Epklxd3dy9E38l8vw2Ka-1" vertex="1">
          <mxGeometry x="-20" y="539" width="580" height="60" as="geometry"/>
        </mxCell>
        <mxCell id="Epklxd3dy9E38l8vw2Ka-3" value="" style="rounded=1;whiteSpace=wrap;html=1;align=left;fillColor=#ffcccc;strokeColor=#36393d;opacity=30;fontStyle=1" parent="Epklxd3dy9E38l8vw2Ka-1" vertex="1">
          <mxGeometry x="-20" y="180" width="580" height="60" as="geometry"/>
        </mxCell>
        <mxCell id="Epklxd3dy9E38l8vw2Ka-4" value="" style="rounded=1;whiteSpace=wrap;html=1;align=left;fillColor=#ffcccc;strokeColor=#36393d;opacity=30;fontStyle=1" parent="Epklxd3dy9E38l8vw2Ka-1" vertex="1">
          <mxGeometry x="-20" y="40" width="580" height="60" as="geometry"/>
        </mxCell>
        <mxCell id="Epklxd3dy9E38l8vw2Ka-5" value="&lt;span style=&quot;font-size: 18px&quot;&gt;Planning and&amp;nbsp;&lt;br&gt;Control&lt;br&gt;&lt;/span&gt;" style="text;html=1;resizable=0;points=[];autosize=1;align=left;verticalAlign=top;spacingTop=-4;fontStyle=1" parent="Epklxd3dy9E38l8vw2Ka-1" vertex="1">
          <mxGeometry x="-9" y="54" width="130" height="30" as="geometry"/>
        </mxCell>
        <mxCell id="Epklxd3dy9E38l8vw2Ka-6" value="" style="rounded=1;whiteSpace=wrap;html=1;align=left;fillColor=#ffcccc;strokeColor=#36393d;opacity=30;fontStyle=1" parent="Epklxd3dy9E38l8vw2Ka-1" vertex="1">
          <mxGeometry x="-20" y="110" width="580" height="60" as="geometry"/>
        </mxCell>
        <mxCell id="Epklxd3dy9E38l8vw2Ka-7" value="&lt;span style=&quot;font-size: 18px&quot;&gt;Tender&lt;/span&gt;" style="text;html=1;resizable=0;points=[];autosize=1;align=left;verticalAlign=top;spacingTop=-4;fontStyle=1" parent="Epklxd3dy9E38l8vw2Ka-1" vertex="1">
          <mxGeometry x="-11" y="120" width="70" height="20" as="geometry"/>
        </mxCell>
        <mxCell id="Epklxd3dy9E38l8vw2Ka-8" value="" style="rounded=1;whiteSpace=wrap;html=1;align=left;fillColor=#ffcccc;strokeColor=#36393d;opacity=30;fontStyle=1" parent="Epklxd3dy9E38l8vw2Ka-1" vertex="1">
          <mxGeometry x="-20" y="252" width="580" height="60" as="geometry"/>
        </mxCell>
        <mxCell id="Epklxd3dy9E38l8vw2Ka-9" value="&lt;span style=&quot;font-size: 18px&quot;&gt;Order&lt;/span&gt;" style="text;html=1;resizable=0;points=[];autosize=1;align=left;verticalAlign=top;spacingTop=-4;fontStyle=1" parent="Epklxd3dy9E38l8vw2Ka-1" vertex="1">
          <mxGeometry x="-14" y="192" width="60" height="20" as="geometry"/>
        </mxCell>
        <mxCell id="Epklxd3dy9E38l8vw2Ka-10" value="&lt;span style=&quot;font-size: 18px&quot;&gt;Occupant&lt;br&gt;&lt;/span&gt;&lt;font style=&quot;font-size: 18px&quot;&gt;Customisations&lt;/font&gt;" style="text;html=1;resizable=0;points=[];autosize=1;align=left;verticalAlign=top;spacingTop=-4;fontStyle=1" parent="Epklxd3dy9E38l8vw2Ka-1" vertex="1">
          <mxGeometry x="-15" y="260" width="140" height="30" as="geometry"/>
        </mxCell>
        <mxCell id="Epklxd3dy9E38l8vw2Ka-11" value="" style="rounded=1;whiteSpace=wrap;html=1;align=left;fillColor=#ffcccc;strokeColor=#36393d;opacity=30;fontStyle=1" parent="Epklxd3dy9E38l8vw2Ka-1" vertex="1">
          <mxGeometry x="-20" y="330" width="580" height="60" as="geometry"/>
        </mxCell>
        <mxCell id="Epklxd3dy9E38l8vw2Ka-12" value="&lt;span style=&quot;font-size: 18px&quot;&gt;Delivery&lt;/span&gt;" style="text;html=1;resizable=0;points=[];autosize=1;align=left;verticalAlign=top;spacingTop=-4;fontStyle=1" parent="Epklxd3dy9E38l8vw2Ka-1" vertex="1">
          <mxGeometry x="-13" y="344" width="80" height="20" as="geometry"/>
        </mxCell>
        <mxCell id="Epklxd3dy9E38l8vw2Ka-13" value="" style="rounded=1;whiteSpace=wrap;html=1;align=left;fillColor=#ffcccc;strokeColor=#36393d;opacity=30;fontStyle=1" parent="Epklxd3dy9E38l8vw2Ka-1" vertex="1">
          <mxGeometry x="-20" y="400" width="580" height="60" as="geometry"/>
        </mxCell>
        <mxCell id="Epklxd3dy9E38l8vw2Ka-14" value="&lt;span style=&quot;font-size: 18px&quot;&gt;Installation&lt;/span&gt;" style="text;html=1;resizable=0;points=[];autosize=1;align=left;verticalAlign=top;spacingTop=-4;fontStyle=1" parent="Epklxd3dy9E38l8vw2Ka-1" vertex="1">
          <mxGeometry x="-10" y="415" width="100" height="20" as="geometry"/>
        </mxCell>
        <mxCell id="Epklxd3dy9E38l8vw2Ka-15" value="&lt;span style=&quot;font-size: 18px&quot;&gt;After Care&lt;/span&gt;" style="text;html=1;resizable=0;points=[];autosize=1;align=left;verticalAlign=top;spacingTop=-4;fontStyle=1" parent="Epklxd3dy9E38l8vw2Ka-1" vertex="1">
          <mxGeometry x="-14" y="552" width="100" height="20" as="geometry"/>
        </mxCell>
        <mxCell id="Epklxd3dy9E38l8vw2Ka-17" value="Review RFT" style="rounded=1;whiteSpace=wrap;html=1;" parent="Epklxd3dy9E38l8vw2Ka-1" vertex="1">
          <mxGeometry x="140" y="45" width="90" height="50" as="geometry"/>
        </mxCell>
        <mxCell id="Epklxd3dy9E38l8vw2Ka-18" value="Create Project" style="rounded=1;whiteSpace=wrap;html=1;" parent="Epklxd3dy9E38l8vw2Ka-1" vertex="1">
          <mxGeometry x="240" y="45" width="90" height="50" as="geometry"/>
        </mxCell>
        <mxCell id="Epklxd3dy9E38l8vw2Ka-21" value="Preplanning (Initial Drawings &amp;amp; Iterations)" style="rounded=1;whiteSpace=wrap;html=1;" parent="Epklxd3dy9E38l8vw2Ka-1" vertex="1">
          <mxGeometry x="140" y="114.5" width="90" height="50" as="geometry"/>
        </mxCell>
        <mxCell id="Epklxd3dy9E38l8vw2Ka-22" value="Review Customer Specifications" style="rounded=1;whiteSpace=wrap;html=1;" parent="Epklxd3dy9E38l8vw2Ka-1" vertex="1">
          <mxGeometry x="240" y="114.5" width="90" height="50" as="geometry"/>
        </mxCell>
        <mxCell id="Epklxd3dy9E38l8vw2Ka-24" value="Transform Quotation to Order" style="rounded=1;whiteSpace=wrap;html=1;" parent="Epklxd3dy9E38l8vw2Ka-1" vertex="1">
          <mxGeometry x="140" y="185" width="90" height="50" as="geometry"/>
        </mxCell>
        <mxCell id="Epklxd3dy9E38l8vw2Ka-25" value="Arrange Occupant Modifications" style="rounded=1;whiteSpace=wrap;html=1;" parent="Epklxd3dy9E38l8vw2Ka-1" vertex="1">
          <mxGeometry x="140" y="257.5" width="90" height="50" as="geometry"/>
        </mxCell>
        <mxCell id="Epklxd3dy9E38l8vw2Ka-28" value="Handle Reclamations" style="rounded=1;whiteSpace=wrap;html=1;" parent="Epklxd3dy9E38l8vw2Ka-1" vertex="1">
          <mxGeometry x="140" y="544" width="90" height="50" as="geometry"/>
        </mxCell>
        <mxCell id="iOLPwjFM6uhp_4ysxBij-0" value="Send Order Confirmation to Customer" style="rounded=1;whiteSpace=wrap;html=1;" parent="Epklxd3dy9E38l8vw2Ka-1" vertex="1">
          <mxGeometry x="239" y="183" width="90" height="55" as="geometry"/>
        </mxCell>
        <mxCell id="iOLPwjFM6uhp_4ysxBij-1" value="Approve Delivery Schedule and Phasing" style="rounded=1;whiteSpace=wrap;html=1;" parent="Epklxd3dy9E38l8vw2Ka-1" vertex="1">
          <mxGeometry x="140" y="332.5" width="90" height="55" as="geometry"/>
        </mxCell>
        <mxCell id="iOLPwjFM6uhp_4ysxBij-2" value="Transfer Order to Production" style="rounded=1;whiteSpace=wrap;html=1;" parent="Epklxd3dy9E38l8vw2Ka-1" vertex="1">
          <mxGeometry x="342" y="185" width="90" height="51" as="geometry"/>
        </mxCell>
        <mxCell id="iOLPwjFM6uhp_4ysxBij-3" value="Assign Installer" style="rounded=1;whiteSpace=wrap;html=1;" parent="Epklxd3dy9E38l8vw2Ka-1" vertex="1">
          <mxGeometry x="140" y="402.5" width="90" height="50" as="geometry"/>
        </mxCell>
        <mxCell id="iOLPwjFM6uhp_4ysxBij-4" value="Install according to drawings" style="rounded=1;whiteSpace=wrap;html=1;" parent="Epklxd3dy9E38l8vw2Ka-1" vertex="1">
          <mxGeometry x="240" y="405" width="90" height="50" as="geometry"/>
        </mxCell>
        <mxCell id="iOLPwjFM6uhp_4ysxBij-5" value="Post orders and reclamations" style="rounded=1;whiteSpace=wrap;html=1;" parent="Epklxd3dy9E38l8vw2Ka-1" vertex="1">
          <mxGeometry x="340" y="405" width="90" height="50" as="geometry"/>
        </mxCell>
        <mxCell id="iOLPwjFM6uhp_4ysxBij-6" value="Review and hand-over (sign-off)" style="rounded=1;whiteSpace=wrap;html=1;" parent="Epklxd3dy9E38l8vw2Ka-1" vertex="1">
          <mxGeometry x="441" y="405" width="90" height="50" as="geometry"/>
        </mxCell>
        <mxCell id="N1ox53o2d26jwv5xddcP-0" value="" style="rounded=1;whiteSpace=wrap;html=1;align=left;fillColor=#ffcccc;strokeColor=#36393d;opacity=30;fontStyle=1" parent="Epklxd3dy9E38l8vw2Ka-1" vertex="1">
          <mxGeometry x="-20" y="470" width="580" height="60" as="geometry"/>
        </mxCell>
        <mxCell id="N1ox53o2d26jwv5xddcP-2" value="&lt;span style=&quot;font-size: 18px&quot;&gt;Billing&lt;/span&gt;" style="text;html=1;resizable=0;points=[];autosize=1;align=left;verticalAlign=top;spacingTop=-4;fontStyle=1" parent="Epklxd3dy9E38l8vw2Ka-1" vertex="1">
          <mxGeometry x="-9" y="490" width="60" height="20" as="geometry"/>
        </mxCell>
        <mxCell id="wUI5Y0MLvb6cAS2OpFb2-0" value="" style="shape=image;html=1;verticalAlign=top;verticalLabelPosition=bottom;labelBackgroundColor=#ffffff;imageAspect=0;aspect=fixed;image=https://cdn0.iconfinder.com/data/icons/feather/96/circle-cross-128.png;glass=0;comic=0;opacity=70;align=left;" parent="Epklxd3dy9E38l8vw2Ka-1" vertex="1">
          <mxGeometry x="160.5" y="471" width="49" height="49" as="geometry"/>
        </mxCell>
      </root>
    </mxGraphModel>
  </diagram>
  <diagram name="Project Sweden" id="wlM-ST93OLh2rCw8BISC">
    <mxGraphModel dx="1752" dy="502" grid="1" gridSize="10" guides="1" tooltips="1" connect="1" arrows="1" fold="1" page="1" pageScale="1" pageWidth="827" pageHeight="1169" math="0" shadow="0">
      <root>
        <mxCell id="1fm2gzwYan6FKiJYvKa8-0"/>
        <mxCell id="1fm2gzwYan6FKiJYvKa8-1" parent="1fm2gzwYan6FKiJYvKa8-0"/>
        <mxCell id="1fm2gzwYan6FKiJYvKa8-2" value="&lt;font style=&quot;font-size: 14px&quot;&gt;Sweden&lt;/font&gt;" style="rounded=1;whiteSpace=wrap;html=1;fillColor=#ffcc99;strokeColor=none;verticalAlign=top;fontStyle=1;arcSize=5;" parent="1fm2gzwYan6FKiJYvKa8-1" vertex="1">
          <mxGeometry x="131" width="419" height="630" as="geometry"/>
        </mxCell>
        <mxCell id="1fm2gzwYan6FKiJYvKa8-16" value="" style="rounded=1;whiteSpace=wrap;html=1;align=left;fillColor=#ffcccc;strokeColor=#36393d;opacity=30;fontStyle=1" parent="1fm2gzwYan6FKiJYvKa8-1" vertex="1">
          <mxGeometry x="-20" y="547" width="590" height="60" as="geometry"/>
        </mxCell>
        <mxCell id="1fm2gzwYan6FKiJYvKa8-3" value="" style="rounded=1;whiteSpace=wrap;html=1;align=left;fillColor=#ffcccc;strokeColor=#36393d;opacity=30;fontStyle=1" parent="1fm2gzwYan6FKiJYvKa8-1" vertex="1">
          <mxGeometry x="-20" y="180" width="590" height="60" as="geometry"/>
        </mxCell>
        <mxCell id="1fm2gzwYan6FKiJYvKa8-4" value="" style="rounded=1;whiteSpace=wrap;html=1;align=left;fillColor=#ffcccc;strokeColor=#36393d;opacity=30;fontStyle=1" parent="1fm2gzwYan6FKiJYvKa8-1" vertex="1">
          <mxGeometry x="-20" y="40" width="590" height="60" as="geometry"/>
        </mxCell>
        <mxCell id="1fm2gzwYan6FKiJYvKa8-5" value="&lt;span style=&quot;font-size: 18px&quot;&gt;Planning and&amp;nbsp;&lt;br&gt;Control&lt;br&gt;&lt;/span&gt;" style="text;html=1;resizable=0;points=[];autosize=1;align=left;verticalAlign=top;spacingTop=-4;fontStyle=1" parent="1fm2gzwYan6FKiJYvKa8-1" vertex="1">
          <mxGeometry x="-9" y="54" width="130" height="30" as="geometry"/>
        </mxCell>
        <mxCell id="1fm2gzwYan6FKiJYvKa8-6" value="" style="rounded=1;whiteSpace=wrap;html=1;align=left;fillColor=#ffcccc;strokeColor=#36393d;opacity=30;fontStyle=1" parent="1fm2gzwYan6FKiJYvKa8-1" vertex="1">
          <mxGeometry x="-20" y="110" width="590" height="60" as="geometry"/>
        </mxCell>
        <mxCell id="1fm2gzwYan6FKiJYvKa8-7" value="&lt;span style=&quot;font-size: 18px&quot;&gt;Tender&lt;/span&gt;" style="text;html=1;resizable=0;points=[];autosize=1;align=left;verticalAlign=top;spacingTop=-4;fontStyle=1" parent="1fm2gzwYan6FKiJYvKa8-1" vertex="1">
          <mxGeometry x="-11" y="120" width="70" height="20" as="geometry"/>
        </mxCell>
        <mxCell id="1fm2gzwYan6FKiJYvKa8-8" value="" style="rounded=1;whiteSpace=wrap;html=1;align=left;fillColor=#ffcccc;strokeColor=#36393d;opacity=30;fontStyle=1" parent="1fm2gzwYan6FKiJYvKa8-1" vertex="1">
          <mxGeometry x="-20" y="252" width="590" height="60" as="geometry"/>
        </mxCell>
        <mxCell id="1fm2gzwYan6FKiJYvKa8-9" value="&lt;span style=&quot;font-size: 18px&quot;&gt;Order&lt;/span&gt;" style="text;html=1;resizable=0;points=[];autosize=1;align=left;verticalAlign=top;spacingTop=-4;fontStyle=1" parent="1fm2gzwYan6FKiJYvKa8-1" vertex="1">
          <mxGeometry x="-14" y="192" width="60" height="20" as="geometry"/>
        </mxCell>
        <mxCell id="1fm2gzwYan6FKiJYvKa8-10" value="&lt;span style=&quot;font-size: 18px&quot;&gt;Occupant&lt;br&gt;&lt;/span&gt;&lt;font style=&quot;font-size: 18px&quot;&gt;Customisations&lt;/font&gt;" style="text;html=1;resizable=0;points=[];autosize=1;align=left;verticalAlign=top;spacingTop=-4;fontStyle=1" parent="1fm2gzwYan6FKiJYvKa8-1" vertex="1">
          <mxGeometry x="-15" y="260" width="140" height="30" as="geometry"/>
        </mxCell>
        <mxCell id="1fm2gzwYan6FKiJYvKa8-11" value="" style="rounded=1;whiteSpace=wrap;html=1;align=left;fillColor=#ffcccc;strokeColor=#36393d;opacity=30;fontStyle=1" parent="1fm2gzwYan6FKiJYvKa8-1" vertex="1">
          <mxGeometry x="-20" y="330" width="590" height="60" as="geometry"/>
        </mxCell>
        <mxCell id="1fm2gzwYan6FKiJYvKa8-12" value="&lt;span style=&quot;font-size: 18px&quot;&gt;Delivery&lt;/span&gt;" style="text;html=1;resizable=0;points=[];autosize=1;align=left;verticalAlign=top;spacingTop=-4;fontStyle=1" parent="1fm2gzwYan6FKiJYvKa8-1" vertex="1">
          <mxGeometry x="-13" y="344" width="80" height="20" as="geometry"/>
        </mxCell>
        <mxCell id="1fm2gzwYan6FKiJYvKa8-13" value="" style="rounded=1;whiteSpace=wrap;html=1;align=left;fillColor=#ffcccc;strokeColor=#36393d;opacity=30;fontStyle=1" parent="1fm2gzwYan6FKiJYvKa8-1" vertex="1">
          <mxGeometry x="-20" y="400" width="590" height="60" as="geometry"/>
        </mxCell>
        <mxCell id="1fm2gzwYan6FKiJYvKa8-14" value="&lt;span style=&quot;font-size: 18px&quot;&gt;Installation&lt;/span&gt;" style="text;html=1;resizable=0;points=[];autosize=1;align=left;verticalAlign=top;spacingTop=-4;fontStyle=1" parent="1fm2gzwYan6FKiJYvKa8-1" vertex="1">
          <mxGeometry x="-10" y="415" width="100" height="20" as="geometry"/>
        </mxCell>
        <mxCell id="1fm2gzwYan6FKiJYvKa8-15" value="&lt;span style=&quot;font-size: 18px&quot;&gt;After Care&lt;/span&gt;" style="text;html=1;resizable=0;points=[];autosize=1;align=left;verticalAlign=top;spacingTop=-4;fontStyle=1" parent="1fm2gzwYan6FKiJYvKa8-1" vertex="1">
          <mxGeometry x="-9" y="562" width="100" height="20" as="geometry"/>
        </mxCell>
        <mxCell id="1fm2gzwYan6FKiJYvKa8-17" value="Receive RFQ" style="rounded=1;whiteSpace=wrap;html=1;" parent="1fm2gzwYan6FKiJYvKa8-1" vertex="1">
          <mxGeometry x="140" y="45" width="90" height="50" as="geometry"/>
        </mxCell>
        <mxCell id="1fm2gzwYan6FKiJYvKa8-18" value="Register Project ID" style="rounded=1;whiteSpace=wrap;html=1;" parent="1fm2gzwYan6FKiJYvKa8-1" vertex="1">
          <mxGeometry x="240" y="45" width="90" height="50" as="geometry"/>
        </mxCell>
        <mxCell id="1fm2gzwYan6FKiJYvKa8-21" value="Create Draft Drawings" style="rounded=1;whiteSpace=wrap;html=1;" parent="1fm2gzwYan6FKiJYvKa8-1" vertex="1">
          <mxGeometry x="140" y="112.5" width="90" height="50" as="geometry"/>
        </mxCell>
        <mxCell id="1fm2gzwYan6FKiJYvKa8-22" value="Set Order related rebates" style="rounded=1;whiteSpace=wrap;html=1;" parent="1fm2gzwYan6FKiJYvKa8-1" vertex="1">
          <mxGeometry x="240" y="112.5" width="90" height="50" as="geometry"/>
        </mxCell>
        <mxCell id="1fm2gzwYan6FKiJYvKa8-23" value="Complete Tender" style="rounded=1;whiteSpace=wrap;html=1;" parent="1fm2gzwYan6FKiJYvKa8-1" vertex="1">
          <mxGeometry x="340" y="112.5" width="90" height="50" as="geometry"/>
        </mxCell>
        <mxCell id="1fm2gzwYan6FKiJYvKa8-24" value="Create Review Drawings" style="rounded=1;whiteSpace=wrap;html=1;" parent="1fm2gzwYan6FKiJYvKa8-1" vertex="1">
          <mxGeometry x="140" y="185" width="90" height="50" as="geometry"/>
        </mxCell>
        <mxCell id="1fm2gzwYan6FKiJYvKa8-26" value="Create Delivery Plan by each Apartment" style="rounded=1;whiteSpace=wrap;html=1;" parent="1fm2gzwYan6FKiJYvKa8-1" vertex="1">
          <mxGeometry x="140" y="335" width="90" height="50" as="geometry"/>
        </mxCell>
        <mxCell id="1fm2gzwYan6FKiJYvKa8-27" value="" style="shape=image;html=1;verticalAlign=top;verticalLabelPosition=bottom;labelBackgroundColor=#ffffff;imageAspect=0;aspect=fixed;image=https://cdn0.iconfinder.com/data/icons/feather/96/circle-cross-128.png;glass=0;comic=0;opacity=70;align=left;" parent="1fm2gzwYan6FKiJYvKa8-1" vertex="1">
          <mxGeometry x="160.5" y="403" width="49" height="49" as="geometry"/>
        </mxCell>
        <mxCell id="WVCoZRU4bn8jsHZK39dR-0" value="Manage apartment ID&#39;s" style="rounded=1;whiteSpace=wrap;html=1;" parent="1fm2gzwYan6FKiJYvKa8-1" vertex="1">
          <mxGeometry x="240" y="185" width="90" height="50" as="geometry"/>
        </mxCell>
        <mxCell id="WVCoZRU4bn8jsHZK39dR-1" value="Create Apartment Unique Drawings" style="rounded=1;whiteSpace=wrap;html=1;" parent="1fm2gzwYan6FKiJYvKa8-1" vertex="1">
          <mxGeometry x="140" y="258" width="110" height="50" as="geometry"/>
        </mxCell>
        <mxCell id="Iu5OEHVo_V-0O9f2jNGI-0" value="ATD Request and Register Delivery Dates" style="rounded=1;whiteSpace=wrap;html=1;" parent="1fm2gzwYan6FKiJYvKa8-1" vertex="1">
          <mxGeometry x="340" y="185" width="90" height="50" as="geometry"/>
        </mxCell>
        <mxCell id="Iu5OEHVo_V-0O9f2jNGI-1" value="Generate order" style="rounded=1;whiteSpace=wrap;html=1;" parent="1fm2gzwYan6FKiJYvKa8-1" vertex="1">
          <mxGeometry x="450" y="186" width="90" height="50" as="geometry"/>
        </mxCell>
        <mxCell id="Iu5OEHVo_V-0O9f2jNGI-2" value="" style="shape=image;html=1;verticalAlign=top;verticalLabelPosition=bottom;labelBackgroundColor=#ffffff;imageAspect=0;aspect=fixed;image=https://cdn0.iconfinder.com/data/icons/feather/96/circle-cross-128.png;glass=0;comic=0;opacity=70;align=left;" parent="1fm2gzwYan6FKiJYvKa8-1" vertex="1">
          <mxGeometry x="160.5" y="552.5" width="49" height="49" as="geometry"/>
        </mxCell>
        <mxCell id="t-Kn423iYnHsH7Q4kJFj-0" value="" style="rounded=1;whiteSpace=wrap;html=1;align=left;fillColor=#ffcccc;strokeColor=#36393d;opacity=30;fontStyle=1" parent="1fm2gzwYan6FKiJYvKa8-1" vertex="1">
          <mxGeometry x="-20" y="474" width="590" height="60" as="geometry"/>
        </mxCell>
        <mxCell id="t-Kn423iYnHsH7Q4kJFj-1" value="" style="shape=image;html=1;verticalAlign=top;verticalLabelPosition=bottom;labelBackgroundColor=#ffffff;imageAspect=0;aspect=fixed;image=https://cdn0.iconfinder.com/data/icons/feather/96/circle-cross-128.png;glass=0;comic=0;opacity=70;align=left;" parent="1fm2gzwYan6FKiJYvKa8-1" vertex="1">
          <mxGeometry x="160.5" y="479.5" width="49" height="49" as="geometry"/>
        </mxCell>
        <mxCell id="t-Kn423iYnHsH7Q4kJFj-2" value="&lt;span style=&quot;font-size: 18px&quot;&gt;Billing&lt;/span&gt;" style="text;html=1;resizable=0;points=[];autosize=1;align=left;verticalAlign=top;spacingTop=-4;fontStyle=1" parent="1fm2gzwYan6FKiJYvKa8-1" vertex="1">
          <mxGeometry x="-11" y="494" width="60" height="20" as="geometry"/>
        </mxCell>
        <mxCell id="9DTA826OMco1CCiJ_slH-0" value="Project Meeting" style="rounded=1;whiteSpace=wrap;html=1;" vertex="1" parent="1fm2gzwYan6FKiJYvKa8-1">
          <mxGeometry x="340" y="45" width="90" height="50" as="geometry"/>
        </mxCell>
      </root>
    </mxGraphModel>
  </diagram>
  <diagram name="Project Norway" id="7gDVRwWUJNJ9h7pBN2gx">
    <mxGraphModel dx="1353" dy="322" grid="1" gridSize="10" guides="1" tooltips="1" connect="1" arrows="1" fold="1" page="1" pageScale="1" pageWidth="827" pageHeight="1169" math="0" shadow="0">
      <root>
        <mxCell id="xjU2jawAnIq5bgywezPV-0"/>
        <mxCell id="xjU2jawAnIq5bgywezPV-1" parent="xjU2jawAnIq5bgywezPV-0"/>
        <mxCell id="xjU2jawAnIq5bgywezPV-2" value="&lt;font style=&quot;font-size: 14px&quot;&gt;Norway&lt;/font&gt;" style="rounded=1;whiteSpace=wrap;html=1;fillColor=#ffcc99;strokeColor=none;verticalAlign=top;fontStyle=1;arcSize=5;" parent="xjU2jawAnIq5bgywezPV-1" vertex="1">
          <mxGeometry x="131" width="419" height="630" as="geometry"/>
        </mxCell>
        <mxCell id="xjU2jawAnIq5bgywezPV-3" value="" style="rounded=1;whiteSpace=wrap;html=1;align=left;fillColor=#ffcccc;strokeColor=#36393d;opacity=30;fontStyle=1" parent="xjU2jawAnIq5bgywezPV-1" vertex="1">
          <mxGeometry x="-20" y="547" width="590" height="60" as="geometry"/>
        </mxCell>
        <mxCell id="xjU2jawAnIq5bgywezPV-4" value="" style="rounded=1;whiteSpace=wrap;html=1;align=left;fillColor=#ffcccc;strokeColor=#36393d;opacity=30;fontStyle=1" parent="xjU2jawAnIq5bgywezPV-1" vertex="1">
          <mxGeometry x="-20" y="180" width="590" height="60" as="geometry"/>
        </mxCell>
        <mxCell id="xjU2jawAnIq5bgywezPV-5" value="" style="rounded=1;whiteSpace=wrap;html=1;align=left;fillColor=#ffcccc;strokeColor=#36393d;opacity=30;fontStyle=1" parent="xjU2jawAnIq5bgywezPV-1" vertex="1">
          <mxGeometry x="-20" y="40" width="590" height="60" as="geometry"/>
        </mxCell>
        <mxCell id="xjU2jawAnIq5bgywezPV-6" value="&lt;span style=&quot;font-size: 18px&quot;&gt;Planning and&amp;nbsp;&lt;br&gt;Control&lt;br&gt;&lt;/span&gt;" style="text;html=1;resizable=0;points=[];autosize=1;align=left;verticalAlign=top;spacingTop=-4;fontStyle=1" parent="xjU2jawAnIq5bgywezPV-1" vertex="1">
          <mxGeometry x="-9" y="54" width="130" height="30" as="geometry"/>
        </mxCell>
        <mxCell id="xjU2jawAnIq5bgywezPV-7" value="" style="rounded=1;whiteSpace=wrap;html=1;align=left;fillColor=#ffcccc;strokeColor=#36393d;opacity=30;fontStyle=1" parent="xjU2jawAnIq5bgywezPV-1" vertex="1">
          <mxGeometry x="-20" y="110" width="590" height="60" as="geometry"/>
        </mxCell>
        <mxCell id="xjU2jawAnIq5bgywezPV-8" value="&lt;span style=&quot;font-size: 18px&quot;&gt;Tender&lt;/span&gt;" style="text;html=1;resizable=0;points=[];autosize=1;align=left;verticalAlign=top;spacingTop=-4;fontStyle=1" parent="xjU2jawAnIq5bgywezPV-1" vertex="1">
          <mxGeometry x="-11" y="120" width="70" height="20" as="geometry"/>
        </mxCell>
        <mxCell id="xjU2jawAnIq5bgywezPV-9" value="" style="rounded=1;whiteSpace=wrap;html=1;align=left;fillColor=#ffcccc;strokeColor=#36393d;opacity=30;fontStyle=1" parent="xjU2jawAnIq5bgywezPV-1" vertex="1">
          <mxGeometry x="-20" y="252" width="590" height="60" as="geometry"/>
        </mxCell>
        <mxCell id="xjU2jawAnIq5bgywezPV-10" value="&lt;span style=&quot;font-size: 18px&quot;&gt;Order&lt;/span&gt;" style="text;html=1;resizable=0;points=[];autosize=1;align=left;verticalAlign=top;spacingTop=-4;fontStyle=1" parent="xjU2jawAnIq5bgywezPV-1" vertex="1">
          <mxGeometry x="-14" y="192" width="60" height="20" as="geometry"/>
        </mxCell>
        <mxCell id="xjU2jawAnIq5bgywezPV-11" value="&lt;span style=&quot;font-size: 18px&quot;&gt;Occupant&lt;br&gt;&lt;/span&gt;&lt;font style=&quot;font-size: 18px&quot;&gt;Customisations&lt;/font&gt;" style="text;html=1;resizable=0;points=[];autosize=1;align=left;verticalAlign=top;spacingTop=-4;fontStyle=1" parent="xjU2jawAnIq5bgywezPV-1" vertex="1">
          <mxGeometry x="-15" y="260" width="140" height="30" as="geometry"/>
        </mxCell>
        <mxCell id="xjU2jawAnIq5bgywezPV-12" value="" style="rounded=1;whiteSpace=wrap;html=1;align=left;fillColor=#ffcccc;strokeColor=#36393d;opacity=30;fontStyle=1" parent="xjU2jawAnIq5bgywezPV-1" vertex="1">
          <mxGeometry x="-20" y="330" width="590" height="60" as="geometry"/>
        </mxCell>
        <mxCell id="xjU2jawAnIq5bgywezPV-13" value="&lt;span style=&quot;font-size: 18px&quot;&gt;Delivery&lt;/span&gt;" style="text;html=1;resizable=0;points=[];autosize=1;align=left;verticalAlign=top;spacingTop=-4;fontStyle=1" parent="xjU2jawAnIq5bgywezPV-1" vertex="1">
          <mxGeometry x="-13" y="344" width="80" height="20" as="geometry"/>
        </mxCell>
        <mxCell id="xjU2jawAnIq5bgywezPV-14" value="" style="rounded=1;whiteSpace=wrap;html=1;align=left;fillColor=#ffcccc;strokeColor=#36393d;opacity=30;fontStyle=1" parent="xjU2jawAnIq5bgywezPV-1" vertex="1">
          <mxGeometry x="-20" y="400" width="590" height="60" as="geometry"/>
        </mxCell>
        <mxCell id="xjU2jawAnIq5bgywezPV-15" value="&lt;span style=&quot;font-size: 18px&quot;&gt;Installation&lt;/span&gt;" style="text;html=1;resizable=0;points=[];autosize=1;align=left;verticalAlign=top;spacingTop=-4;fontStyle=1" parent="xjU2jawAnIq5bgywezPV-1" vertex="1">
          <mxGeometry x="-10" y="415" width="100" height="20" as="geometry"/>
        </mxCell>
        <mxCell id="xjU2jawAnIq5bgywezPV-16" value="&lt;span style=&quot;font-size: 18px&quot;&gt;After Care&lt;/span&gt;" style="text;html=1;resizable=0;points=[];autosize=1;align=left;verticalAlign=top;spacingTop=-4;fontStyle=1" parent="xjU2jawAnIq5bgywezPV-1" vertex="1">
          <mxGeometry x="-9" y="562" width="100" height="20" as="geometry"/>
        </mxCell>
        <mxCell id="xjU2jawAnIq5bgywezPV-17" value="Sales Forcasting" style="rounded=1;whiteSpace=wrap;html=1;" parent="xjU2jawAnIq5bgywezPV-1" vertex="1">
          <mxGeometry x="140" y="45" width="90" height="50" as="geometry"/>
        </mxCell>
        <mxCell id="xjU2jawAnIq5bgywezPV-18" value="Register Project ID" style="rounded=1;whiteSpace=wrap;html=1;" parent="xjU2jawAnIq5bgywezPV-1" vertex="1">
          <mxGeometry x="240" y="45" width="90" height="50" as="geometry"/>
        </mxCell>
        <mxCell id="xjU2jawAnIq5bgywezPV-19" value="Create Draft Drawings" style="rounded=1;whiteSpace=wrap;html=1;" parent="xjU2jawAnIq5bgywezPV-1" vertex="1">
          <mxGeometry x="140" y="112.5" width="90" height="50" as="geometry"/>
        </mxCell>
        <mxCell id="xjU2jawAnIq5bgywezPV-20" value="Set Order related rebates" style="rounded=1;whiteSpace=wrap;html=1;" parent="xjU2jawAnIq5bgywezPV-1" vertex="1">
          <mxGeometry x="240" y="112.5" width="90" height="50" as="geometry"/>
        </mxCell>
        <mxCell id="xjU2jawAnIq5bgywezPV-21" value="Complete Tender" style="rounded=1;whiteSpace=wrap;html=1;" parent="xjU2jawAnIq5bgywezPV-1" vertex="1">
          <mxGeometry x="340" y="112.5" width="90" height="50" as="geometry"/>
        </mxCell>
        <mxCell id="xjU2jawAnIq5bgywezPV-22" value="Create Review Drawings" style="rounded=1;whiteSpace=wrap;html=1;" parent="xjU2jawAnIq5bgywezPV-1" vertex="1">
          <mxGeometry x="140" y="185" width="90" height="50" as="geometry"/>
        </mxCell>
        <mxCell id="xjU2jawAnIq5bgywezPV-23" value="Create Delivery Plan by each Apartment" style="rounded=1;whiteSpace=wrap;html=1;" parent="xjU2jawAnIq5bgywezPV-1" vertex="1">
          <mxGeometry x="140" y="335" width="90" height="50" as="geometry"/>
        </mxCell>
        <mxCell id="xjU2jawAnIq5bgywezPV-24" value="" style="shape=image;html=1;verticalAlign=top;verticalLabelPosition=bottom;labelBackgroundColor=#ffffff;imageAspect=0;aspect=fixed;image=https://cdn0.iconfinder.com/data/icons/feather/96/circle-cross-128.png;glass=0;comic=0;opacity=70;align=left;" parent="xjU2jawAnIq5bgywezPV-1" vertex="1">
          <mxGeometry x="160.5" y="403" width="49" height="49" as="geometry"/>
        </mxCell>
        <mxCell id="xjU2jawAnIq5bgywezPV-25" value="Manage apartment ID&#39;s" style="rounded=1;whiteSpace=wrap;html=1;" parent="xjU2jawAnIq5bgywezPV-1" vertex="1">
          <mxGeometry x="240" y="185" width="90" height="50" as="geometry"/>
        </mxCell>
        <mxCell id="xjU2jawAnIq5bgywezPV-26" value="Create Apartment Unique Drawings" style="rounded=1;whiteSpace=wrap;html=1;" parent="xjU2jawAnIq5bgywezPV-1" vertex="1">
          <mxGeometry x="140" y="258" width="110" height="50" as="geometry"/>
        </mxCell>
        <mxCell id="xjU2jawAnIq5bgywezPV-27" value="ATD Request and Register Delivery Dates" style="rounded=1;whiteSpace=wrap;html=1;" parent="xjU2jawAnIq5bgywezPV-1" vertex="1">
          <mxGeometry x="340" y="185" width="90" height="50" as="geometry"/>
        </mxCell>
        <mxCell id="xjU2jawAnIq5bgywezPV-28" value="Generate order" style="rounded=1;whiteSpace=wrap;html=1;" parent="xjU2jawAnIq5bgywezPV-1" vertex="1">
          <mxGeometry x="450" y="186" width="90" height="50" as="geometry"/>
        </mxCell>
        <mxCell id="xjU2jawAnIq5bgywezPV-29" value="" style="shape=image;html=1;verticalAlign=top;verticalLabelPosition=bottom;labelBackgroundColor=#ffffff;imageAspect=0;aspect=fixed;image=https://cdn0.iconfinder.com/data/icons/feather/96/circle-cross-128.png;glass=0;comic=0;opacity=70;align=left;" parent="xjU2jawAnIq5bgywezPV-1" vertex="1">
          <mxGeometry x="160.5" y="552.5" width="49" height="49" as="geometry"/>
        </mxCell>
        <mxCell id="xjU2jawAnIq5bgywezPV-30" value="" style="rounded=1;whiteSpace=wrap;html=1;align=left;fillColor=#ffcccc;strokeColor=#36393d;opacity=30;fontStyle=1" parent="xjU2jawAnIq5bgywezPV-1" vertex="1">
          <mxGeometry x="-20" y="474" width="590" height="60" as="geometry"/>
        </mxCell>
        <mxCell id="xjU2jawAnIq5bgywezPV-31" value="" style="shape=image;html=1;verticalAlign=top;verticalLabelPosition=bottom;labelBackgroundColor=#ffffff;imageAspect=0;aspect=fixed;image=https://cdn0.iconfinder.com/data/icons/feather/96/circle-cross-128.png;glass=0;comic=0;opacity=70;align=left;" parent="xjU2jawAnIq5bgywezPV-1" vertex="1">
          <mxGeometry x="160.5" y="479.5" width="49" height="49" as="geometry"/>
        </mxCell>
        <mxCell id="xjU2jawAnIq5bgywezPV-32" value="&lt;span style=&quot;font-size: 18px&quot;&gt;Billing&lt;/span&gt;" style="text;html=1;resizable=0;points=[];autosize=1;align=left;verticalAlign=top;spacingTop=-4;fontStyle=1" parent="xjU2jawAnIq5bgywezPV-1" vertex="1">
          <mxGeometry x="-11" y="494" width="60" height="20" as="geometry"/>
        </mxCell>
      </root>
    </mxGraphModel>
  </diagram>
  <diagram name="House Builder Denmark" id="Gl0o52aMVs_9I7KMvwpG">
    <mxGraphModel dx="1992" dy="502" grid="1" gridSize="10" guides="1" tooltips="1" connect="1" arrows="1" fold="1" page="1" pageScale="1" pageWidth="827" pageHeight="1169" math="0" shadow="0">
      <root>
        <mxCell id="IKQYROKK7T8N2rbzd8Sy-0"/>
        <mxCell id="IKQYROKK7T8N2rbzd8Sy-1" parent="IKQYROKK7T8N2rbzd8Sy-0"/>
        <mxCell id="IKQYROKK7T8N2rbzd8Sy-2" value="&lt;font style=&quot;font-size: 14px&quot;&gt;Denmark&lt;/font&gt;" style="rounded=1;whiteSpace=wrap;html=1;fillColor=#ffcc99;strokeColor=none;verticalAlign=top;fontStyle=1;arcSize=5;" parent="IKQYROKK7T8N2rbzd8Sy-1" vertex="1">
          <mxGeometry x="131" y="90" width="419" height="520" as="geometry"/>
        </mxCell>
        <mxCell id="IKQYROKK7T8N2rbzd8Sy-16" value="" style="rounded=1;whiteSpace=wrap;html=1;align=left;fillColor=#ffcccc;strokeColor=#36393d;opacity=30;fontStyle=1" parent="IKQYROKK7T8N2rbzd8Sy-1" vertex="1">
          <mxGeometry x="-20" y="540" width="590" height="60" as="geometry"/>
        </mxCell>
        <mxCell id="IKQYROKK7T8N2rbzd8Sy-3" value="" style="rounded=1;whiteSpace=wrap;html=1;align=left;fillColor=#ffcccc;strokeColor=#36393d;opacity=30;fontStyle=1" parent="IKQYROKK7T8N2rbzd8Sy-1" vertex="1">
          <mxGeometry x="-20" y="121" width="590" height="60" as="geometry"/>
        </mxCell>
        <mxCell id="IKQYROKK7T8N2rbzd8Sy-8" value="" style="rounded=1;whiteSpace=wrap;html=1;align=left;fillColor=#ffcccc;strokeColor=#36393d;opacity=30;fontStyle=1" parent="IKQYROKK7T8N2rbzd8Sy-1" vertex="1">
          <mxGeometry x="-20" y="195" width="590" height="60" as="geometry"/>
        </mxCell>
        <mxCell id="IKQYROKK7T8N2rbzd8Sy-9" value="&lt;span style=&quot;font-size: 18px&quot;&gt;Manage&lt;br&gt;Quote/Order&lt;br&gt;&lt;/span&gt;" style="text;html=1;resizable=0;points=[];autosize=1;align=left;verticalAlign=top;spacingTop=-4;fontStyle=1" parent="IKQYROKK7T8N2rbzd8Sy-1" vertex="1">
          <mxGeometry x="-14" y="133" width="120" height="30" as="geometry"/>
        </mxCell>
        <mxCell id="IKQYROKK7T8N2rbzd8Sy-10" value="&lt;span style=&quot;font-size: 18px&quot;&gt;Occupant&lt;br&gt;&lt;/span&gt;&lt;font style=&quot;font-size: 18px&quot;&gt;Customisations&lt;/font&gt;" style="text;html=1;resizable=0;points=[];autosize=1;align=left;verticalAlign=top;spacingTop=-4;fontStyle=1" parent="IKQYROKK7T8N2rbzd8Sy-1" vertex="1">
          <mxGeometry x="-15" y="203" width="140" height="30" as="geometry"/>
        </mxCell>
        <mxCell id="IKQYROKK7T8N2rbzd8Sy-11" value="" style="rounded=1;whiteSpace=wrap;html=1;align=left;fillColor=#ffcccc;strokeColor=#36393d;opacity=30;fontStyle=1" parent="IKQYROKK7T8N2rbzd8Sy-1" vertex="1">
          <mxGeometry x="-20" y="330" width="590" height="60" as="geometry"/>
        </mxCell>
        <mxCell id="IKQYROKK7T8N2rbzd8Sy-12" value="&lt;span style=&quot;font-size: 18px&quot;&gt;Delivery&lt;/span&gt;" style="text;html=1;resizable=0;points=[];autosize=1;align=left;verticalAlign=top;spacingTop=-4;fontStyle=1" parent="IKQYROKK7T8N2rbzd8Sy-1" vertex="1">
          <mxGeometry x="-13" y="344" width="80" height="20" as="geometry"/>
        </mxCell>
        <mxCell id="IKQYROKK7T8N2rbzd8Sy-13" value="" style="rounded=1;whiteSpace=wrap;html=1;align=left;fillColor=#ffcccc;strokeColor=#36393d;opacity=30;fontStyle=1" parent="IKQYROKK7T8N2rbzd8Sy-1" vertex="1">
          <mxGeometry x="-20" y="400" width="590" height="60" as="geometry"/>
        </mxCell>
        <mxCell id="IKQYROKK7T8N2rbzd8Sy-14" value="&lt;span style=&quot;font-size: 18px&quot;&gt;Installation&lt;/span&gt;" style="text;html=1;resizable=0;points=[];autosize=1;align=left;verticalAlign=top;spacingTop=-4;fontStyle=1" parent="IKQYROKK7T8N2rbzd8Sy-1" vertex="1">
          <mxGeometry x="-10" y="415" width="100" height="20" as="geometry"/>
        </mxCell>
        <mxCell id="IKQYROKK7T8N2rbzd8Sy-15" value="&lt;span style=&quot;font-size: 18px&quot;&gt;After Care&lt;/span&gt;" style="text;html=1;resizable=0;points=[];autosize=1;align=left;verticalAlign=top;spacingTop=-4;fontStyle=1" parent="IKQYROKK7T8N2rbzd8Sy-1" vertex="1">
          <mxGeometry x="-14" y="555" width="100" height="20" as="geometry"/>
        </mxCell>
        <mxCell id="IKQYROKK7T8N2rbzd8Sy-24" value="Create Quotation" style="rounded=1;whiteSpace=wrap;html=1;" parent="IKQYROKK7T8N2rbzd8Sy-1" vertex="1">
          <mxGeometry x="140" y="126" width="90" height="50" as="geometry"/>
        </mxCell>
        <mxCell id="IKQYROKK7T8N2rbzd8Sy-25" value="Customer Meeting" style="rounded=1;whiteSpace=wrap;html=1;" parent="IKQYROKK7T8N2rbzd8Sy-1" vertex="1">
          <mxGeometry x="140" y="200.5" width="90" height="50" as="geometry"/>
        </mxCell>
        <mxCell id="IKQYROKK7T8N2rbzd8Sy-26" value="Delivery" style="rounded=1;whiteSpace=wrap;html=1;" parent="IKQYROKK7T8N2rbzd8Sy-1" vertex="1">
          <mxGeometry x="140" y="335" width="90" height="50" as="geometry"/>
        </mxCell>
        <mxCell id="IKQYROKK7T8N2rbzd8Sy-28" value="Aftersales" style="rounded=1;whiteSpace=wrap;html=1;" parent="IKQYROKK7T8N2rbzd8Sy-1" vertex="1">
          <mxGeometry x="140" y="545" width="90" height="50" as="geometry"/>
        </mxCell>
        <mxCell id="IKQYROKK7T8N2rbzd8Sy-29" value="1 Year Review" style="rounded=1;whiteSpace=wrap;html=1;" parent="IKQYROKK7T8N2rbzd8Sy-1" vertex="1">
          <mxGeometry x="240" y="545" width="90" height="50" as="geometry"/>
        </mxCell>
        <mxCell id="IKQYROKK7T8N2rbzd8Sy-30" value="5 Year Review" style="rounded=1;whiteSpace=wrap;html=1;" parent="IKQYROKK7T8N2rbzd8Sy-1" vertex="1">
          <mxGeometry x="340" y="545" width="90" height="50" as="geometry"/>
        </mxCell>
        <mxCell id="nBGaouMCmNgZgi2WiqbA-1" value="Enter Order Details" style="rounded=1;whiteSpace=wrap;html=1;" parent="IKQYROKK7T8N2rbzd8Sy-1" vertex="1">
          <mxGeometry x="240" y="127" width="90" height="50" as="geometry"/>
        </mxCell>
        <mxCell id="nBGaouMCmNgZgi2WiqbA-2" value="Set Arrangement Header" style="rounded=1;whiteSpace=wrap;html=1;" parent="IKQYROKK7T8N2rbzd8Sy-1" vertex="1">
          <mxGeometry x="340" y="128" width="90" height="50" as="geometry"/>
        </mxCell>
        <mxCell id="nBGaouMCmNgZgi2WiqbA-3" value="Design&amp;nbsp;" style="rounded=1;whiteSpace=wrap;html=1;" parent="IKQYROKK7T8N2rbzd8Sy-1" vertex="1">
          <mxGeometry x="440" y="128" width="90" height="50" as="geometry"/>
        </mxCell>
        <mxCell id="nBGaouMCmNgZgi2WiqbA-4" value="" style="rounded=1;whiteSpace=wrap;html=1;align=left;fillColor=#ffcccc;strokeColor=#36393d;opacity=30;fontStyle=1" parent="IKQYROKK7T8N2rbzd8Sy-1" vertex="1">
          <mxGeometry x="-20" y="260" width="590" height="60" as="geometry"/>
        </mxCell>
        <mxCell id="nBGaouMCmNgZgi2WiqbA-5" value="&lt;span style=&quot;font-size: 18px&quot;&gt;Quote Approval&lt;/span&gt;" style="text;html=1;resizable=0;points=[];autosize=1;align=left;verticalAlign=top;spacingTop=-4;fontStyle=1" parent="IKQYROKK7T8N2rbzd8Sy-1" vertex="1">
          <mxGeometry x="-15" y="268" width="140" height="20" as="geometry"/>
        </mxCell>
        <mxCell id="nBGaouMCmNgZgi2WiqbA-6" value="&#39;Drawing Office&#39; Review" style="rounded=1;whiteSpace=wrap;html=1;" parent="IKQYROKK7T8N2rbzd8Sy-1" vertex="1">
          <mxGeometry x="140" y="265.5" width="90" height="50" as="geometry"/>
        </mxCell>
        <mxCell id="nBGaouMCmNgZgi2WiqbA-7" value="Modify and Recalculate" style="rounded=1;whiteSpace=wrap;html=1;" parent="IKQYROKK7T8N2rbzd8Sy-1" vertex="1">
          <mxGeometry x="240" y="267.5" width="90" height="50" as="geometry"/>
        </mxCell>
        <mxCell id="nBGaouMCmNgZgi2WiqbA-8" value="Transform Quote to Order" style="rounded=1;whiteSpace=wrap;html=1;" parent="IKQYROKK7T8N2rbzd8Sy-1" vertex="1">
          <mxGeometry x="340.5" y="267.5" width="90" height="50" as="geometry"/>
        </mxCell>
        <mxCell id="nBGaouMCmNgZgi2WiqbA-9" value="Installation" style="rounded=1;whiteSpace=wrap;html=1;" parent="IKQYROKK7T8N2rbzd8Sy-1" vertex="1">
          <mxGeometry x="140" y="402.5" width="90" height="50" as="geometry"/>
        </mxCell>
        <mxCell id="iGWsIYoZUIGc3id2Tfah-0" value="" style="rounded=1;whiteSpace=wrap;html=1;align=left;fillColor=#ffcccc;strokeColor=#36393d;opacity=30;fontStyle=1" parent="IKQYROKK7T8N2rbzd8Sy-1" vertex="1">
          <mxGeometry x="-20" y="470" width="590" height="60" as="geometry"/>
        </mxCell>
        <mxCell id="iGWsIYoZUIGc3id2Tfah-1" value="&lt;span style=&quot;font-size: 18px&quot;&gt;Billing&lt;/span&gt;" style="text;html=1;resizable=0;points=[];autosize=1;align=left;verticalAlign=top;spacingTop=-4;fontStyle=1" parent="IKQYROKK7T8N2rbzd8Sy-1" vertex="1">
          <mxGeometry x="-10" y="490" width="60" height="20" as="geometry"/>
        </mxCell>
        <mxCell id="4yb1O2ttfft2DZhPvTUy-0" value="" style="shape=image;html=1;verticalAlign=top;verticalLabelPosition=bottom;labelBackgroundColor=#ffffff;imageAspect=0;aspect=fixed;image=https://cdn0.iconfinder.com/data/icons/feather/96/circle-cross-128.png;glass=0;comic=0;opacity=70;align=left;" parent="IKQYROKK7T8N2rbzd8Sy-1" vertex="1">
          <mxGeometry x="159.5" y="475.5" width="49" height="49" as="geometry"/>
        </mxCell>
      </root>
    </mxGraphModel>
  </diagram>
  <diagram id="XR3wdNrIxOKrYVfWDNbK" name="Housing Association Denmark">
    <mxGraphModel dx="1635" dy="868" grid="1" gridSize="10" guides="1" tooltips="1" connect="1" arrows="1" fold="1" page="1" pageScale="1" pageWidth="827" pageHeight="1169" math="0" shadow="0">
      <root>
        <mxCell id="g3pBQFvv64ndRNvPk6lx-0"/>
        <mxCell id="g3pBQFvv64ndRNvPk6lx-1" parent="g3pBQFvv64ndRNvPk6lx-0"/>
        <mxCell id="ZHZJi9RKvNXm2XcyxtXm-0" value="&lt;font style=&quot;font-size: 14px&quot;&gt;Denmark&lt;/font&gt;" style="rounded=1;whiteSpace=wrap;html=1;fillColor=#ffcc99;strokeColor=none;verticalAlign=top;fontStyle=1;arcSize=4;" parent="g3pBQFvv64ndRNvPk6lx-1" vertex="1">
          <mxGeometry x="125" width="375" height="400" as="geometry"/>
        </mxCell>
        <mxCell id="Yqxc1AdEYHNzvfOwkDEo-1" value="" style="rounded=1;whiteSpace=wrap;html=1;align=left;fillColor=#ffcccc;strokeColor=#36393d;opacity=30;fontStyle=1" parent="g3pBQFvv64ndRNvPk6lx-1" vertex="1">
          <mxGeometry x="10" y="111" width="500" height="60" as="geometry"/>
        </mxCell>
        <mxCell id="q6zMYSxKGEGd6VbE1LTb-0" value="" style="rounded=1;whiteSpace=wrap;html=1;align=left;fillColor=#ffcccc;strokeColor=#36393d;opacity=30;fontStyle=1" parent="g3pBQFvv64ndRNvPk6lx-1" vertex="1">
          <mxGeometry x="10" y="40" width="500" height="60" as="geometry"/>
        </mxCell>
        <mxCell id="ZTuCns6D5tQcbOD_CBG5-0" value="&lt;font style=&quot;font-size: 18px&quot;&gt;Customer&amp;nbsp;&lt;br&gt;Engagement&lt;/font&gt;" style="text;html=1;resizable=0;points=[];autosize=1;align=left;verticalAlign=top;spacingTop=-4;fontStyle=1" parent="g3pBQFvv64ndRNvPk6lx-1" vertex="1">
          <mxGeometry x="10" y="49" width="120" height="30" as="geometry"/>
        </mxCell>
        <mxCell id="bLjiojcyDTYcGefotE0H-1" value="&lt;font style=&quot;font-size: 18px&quot;&gt;Manage&lt;br&gt;Quote/Order&lt;/font&gt;" style="text;html=1;resizable=0;points=[];autosize=1;align=left;verticalAlign=top;spacingTop=-4;fontStyle=1" parent="g3pBQFvv64ndRNvPk6lx-1" vertex="1">
          <mxGeometry x="14" y="119" width="120" height="30" as="geometry"/>
        </mxCell>
        <mxCell id="cF1C8Iv-MEs82uop5qg2-0" value="" style="rounded=1;whiteSpace=wrap;html=1;align=left;fillColor=#ffcccc;strokeColor=#36393d;opacity=30;fontStyle=1" parent="g3pBQFvv64ndRNvPk6lx-1" vertex="1">
          <mxGeometry x="10" y="183" width="500" height="60" as="geometry"/>
        </mxCell>
        <mxCell id="cF1C8Iv-MEs82uop5qg2-1" value="&lt;span style=&quot;font-size: 18px&quot;&gt;Manage &lt;br&gt;Delivery&lt;/span&gt;" style="text;html=1;resizable=0;points=[];autosize=1;align=left;verticalAlign=top;spacingTop=-4;fontStyle=1" parent="g3pBQFvv64ndRNvPk6lx-1" vertex="1">
          <mxGeometry x="20" y="193" width="90" height="30" as="geometry"/>
        </mxCell>
        <mxCell id="cF1C8Iv-MEs82uop5qg2-2" value="" style="rounded=1;whiteSpace=wrap;html=1;align=left;fillColor=#ffcccc;strokeColor=#36393d;opacity=30;fontStyle=1" parent="g3pBQFvv64ndRNvPk6lx-1" vertex="1">
          <mxGeometry x="10" y="330" width="500" height="60" as="geometry"/>
        </mxCell>
        <mxCell id="cF1C8Iv-MEs82uop5qg2-3" value="&lt;span style=&quot;font-size: 18px&quot;&gt;Aftercare&lt;/span&gt;" style="text;html=1;resizable=0;points=[];autosize=1;align=left;verticalAlign=top;spacingTop=-4;fontStyle=1" parent="g3pBQFvv64ndRNvPk6lx-1" vertex="1">
          <mxGeometry x="20" y="350" width="90" height="20" as="geometry"/>
        </mxCell>
        <mxCell id="tltlYLCAYBXyHVBKl6X0-2" value="" style="rounded=1;whiteSpace=wrap;html=1;align=left;fillColor=#ffcccc;strokeColor=#36393d;opacity=30;fontStyle=1" parent="g3pBQFvv64ndRNvPk6lx-1" vertex="1">
          <mxGeometry x="10" y="257" width="500" height="60" as="geometry"/>
        </mxCell>
        <mxCell id="tltlYLCAYBXyHVBKl6X0-3" value="&lt;span style=&quot;font-size: 18px&quot;&gt;Billing&lt;/span&gt;" style="text;html=1;resizable=0;points=[];autosize=1;align=left;verticalAlign=top;spacingTop=-4;fontStyle=1" parent="g3pBQFvv64ndRNvPk6lx-1" vertex="1">
          <mxGeometry x="20" y="277" width="60" height="20" as="geometry"/>
        </mxCell>
        <mxCell id="1WxHyH1H582FAAdJPV50-0" value="Create Quotation" style="rounded=1;whiteSpace=wrap;html=1;" parent="g3pBQFvv64ndRNvPk6lx-1" vertex="1">
          <mxGeometry x="139" y="113" width="90" height="50" as="geometry"/>
        </mxCell>
        <mxCell id="1WxHyH1H582FAAdJPV50-1" value="Customer Inquiry" style="rounded=1;whiteSpace=wrap;html=1;" parent="g3pBQFvv64ndRNvPk6lx-1" vertex="1">
          <mxGeometry x="140" y="45" width="90" height="50" as="geometry"/>
        </mxCell>
        <mxCell id="hoERpgmCbeXwtcIsjzd2-0" value="Customer Meeting" style="rounded=1;whiteSpace=wrap;html=1;" parent="g3pBQFvv64ndRNvPk6lx-1" vertex="1">
          <mxGeometry x="240" y="45" width="90" height="50" as="geometry"/>
        </mxCell>
        <mxCell id="hoERpgmCbeXwtcIsjzd2-1" value="Transform Quote to Order" style="rounded=1;whiteSpace=wrap;html=1;" parent="g3pBQFvv64ndRNvPk6lx-1" vertex="1">
          <mxGeometry x="239" y="113" width="90" height="50" as="geometry"/>
        </mxCell>
        <mxCell id="hoERpgmCbeXwtcIsjzd2-2" value="Installation Dept" style="rounded=1;whiteSpace=wrap;html=1;" parent="g3pBQFvv64ndRNvPk6lx-1" vertex="1">
          <mxGeometry x="341" y="188" width="90" height="50" as="geometry"/>
        </mxCell>
        <mxCell id="hoERpgmCbeXwtcIsjzd2-3" value="Send Delivery Letter" style="rounded=1;whiteSpace=wrap;html=1;" parent="g3pBQFvv64ndRNvPk6lx-1" vertex="1">
          <mxGeometry x="139" y="188" width="90" height="50" as="geometry"/>
        </mxCell>
        <mxCell id="hoERpgmCbeXwtcIsjzd2-4" value="Delivery" style="rounded=1;whiteSpace=wrap;html=1;" parent="g3pBQFvv64ndRNvPk6lx-1" vertex="1">
          <mxGeometry x="240" y="188" width="90" height="50" as="geometry"/>
        </mxCell>
        <mxCell id="hoERpgmCbeXwtcIsjzd2-5" value="Review" style="rounded=1;whiteSpace=wrap;html=1;" parent="g3pBQFvv64ndRNvPk6lx-1" vertex="1">
          <mxGeometry x="140" y="335" width="90" height="50" as="geometry"/>
        </mxCell>
        <mxCell id="UloPFaY0w0ikW3HC0Kno-0" value="" style="shape=image;html=1;verticalAlign=top;verticalLabelPosition=bottom;labelBackgroundColor=#ffffff;imageAspect=0;aspect=fixed;image=https://cdn0.iconfinder.com/data/icons/feather/96/circle-cross-128.png;glass=0;comic=0;opacity=70;align=left;" parent="g3pBQFvv64ndRNvPk6lx-1" vertex="1">
          <mxGeometry x="159.5" y="260" width="49" height="49" as="geometry"/>
        </mxCell>
      </root>
    </mxGraphModel>
  </diagram>
  <diagram name="Tradesmen- Denmark" id="yK9yZQqEtJArUO5fZ6WH">
    <mxGraphModel dx="1635" dy="868" grid="1" gridSize="10" guides="1" tooltips="1" connect="1" arrows="1" fold="1" page="1" pageScale="1" pageWidth="827" pageHeight="1169" math="0" shadow="0">
      <root>
        <mxCell id="3s_GA88vPy6kbgtBsulU-0"/>
        <mxCell id="3s_GA88vPy6kbgtBsulU-1" parent="3s_GA88vPy6kbgtBsulU-0"/>
        <mxCell id="3s_GA88vPy6kbgtBsulU-2" value="&lt;font style=&quot;font-size: 14px&quot;&gt;Denmark&lt;/font&gt;" style="rounded=1;whiteSpace=wrap;html=1;fillColor=#ffcc99;strokeColor=none;verticalAlign=top;fontStyle=1;arcSize=4;" parent="3s_GA88vPy6kbgtBsulU-1" vertex="1">
          <mxGeometry x="125" width="375" height="470" as="geometry"/>
        </mxCell>
        <mxCell id="3s_GA88vPy6kbgtBsulU-3" value="" style="rounded=1;whiteSpace=wrap;html=1;align=left;fillColor=#ffcccc;strokeColor=#36393d;opacity=30;fontStyle=1" parent="3s_GA88vPy6kbgtBsulU-1" vertex="1">
          <mxGeometry x="10" y="111" width="500" height="60" as="geometry"/>
        </mxCell>
        <mxCell id="3s_GA88vPy6kbgtBsulU-4" value="" style="rounded=1;whiteSpace=wrap;html=1;align=left;fillColor=#ffcccc;strokeColor=#36393d;opacity=30;fontStyle=1" parent="3s_GA88vPy6kbgtBsulU-1" vertex="1">
          <mxGeometry x="10" y="40" width="500" height="60" as="geometry"/>
        </mxCell>
        <mxCell id="3s_GA88vPy6kbgtBsulU-5" value="&lt;font style=&quot;font-size: 18px&quot;&gt;Customer&amp;nbsp;&lt;br&gt;Engagement&lt;/font&gt;" style="text;html=1;resizable=0;points=[];autosize=1;align=left;verticalAlign=top;spacingTop=-4;fontStyle=1" parent="3s_GA88vPy6kbgtBsulU-1" vertex="1">
          <mxGeometry x="10" y="49" width="120" height="30" as="geometry"/>
        </mxCell>
        <mxCell id="3s_GA88vPy6kbgtBsulU-6" value="&lt;font style=&quot;font-size: 18px&quot;&gt;Manage&lt;br&gt;Quote/Order&lt;/font&gt;" style="text;html=1;resizable=0;points=[];autosize=1;align=left;verticalAlign=top;spacingTop=-4;fontStyle=1" parent="3s_GA88vPy6kbgtBsulU-1" vertex="1">
          <mxGeometry x="14" y="119" width="120" height="30" as="geometry"/>
        </mxCell>
        <mxCell id="3s_GA88vPy6kbgtBsulU-7" value="" style="rounded=1;whiteSpace=wrap;html=1;align=left;fillColor=#ffcccc;strokeColor=#36393d;opacity=30;fontStyle=1" parent="3s_GA88vPy6kbgtBsulU-1" vertex="1">
          <mxGeometry x="10" y="183" width="500" height="60" as="geometry"/>
        </mxCell>
        <mxCell id="3s_GA88vPy6kbgtBsulU-8" value="&lt;span style=&quot;font-size: 18px&quot;&gt;Manage &lt;br&gt;Delivery&lt;/span&gt;" style="text;html=1;resizable=0;points=[];autosize=1;align=left;verticalAlign=top;spacingTop=-4;fontStyle=1" parent="3s_GA88vPy6kbgtBsulU-1" vertex="1">
          <mxGeometry x="20" y="193" width="90" height="30" as="geometry"/>
        </mxCell>
        <mxCell id="3s_GA88vPy6kbgtBsulU-9" value="" style="rounded=1;whiteSpace=wrap;html=1;align=left;fillColor=#ffcccc;strokeColor=#36393d;opacity=30;fontStyle=1" parent="3s_GA88vPy6kbgtBsulU-1" vertex="1">
          <mxGeometry x="10" y="391" width="500" height="60" as="geometry"/>
        </mxCell>
        <mxCell id="3s_GA88vPy6kbgtBsulU-10" value="&lt;span style=&quot;font-size: 18px&quot;&gt;Aftercare&lt;/span&gt;" style="text;html=1;resizable=0;points=[];autosize=1;align=left;verticalAlign=top;spacingTop=-4;fontStyle=1" parent="3s_GA88vPy6kbgtBsulU-1" vertex="1">
          <mxGeometry x="20" y="403" width="90" height="20" as="geometry"/>
        </mxCell>
        <mxCell id="3s_GA88vPy6kbgtBsulU-11" value="" style="rounded=1;whiteSpace=wrap;html=1;align=left;fillColor=#ffcccc;strokeColor=#36393d;opacity=30;fontStyle=1" parent="3s_GA88vPy6kbgtBsulU-1" vertex="1">
          <mxGeometry x="10" y="322" width="500" height="60" as="geometry"/>
        </mxCell>
        <mxCell id="3s_GA88vPy6kbgtBsulU-12" value="&lt;span style=&quot;font-size: 18px&quot;&gt;Billing&lt;/span&gt;" style="text;html=1;resizable=0;points=[];autosize=1;align=left;verticalAlign=top;spacingTop=-4;fontStyle=1" parent="3s_GA88vPy6kbgtBsulU-1" vertex="1">
          <mxGeometry x="20" y="334" width="60" height="20" as="geometry"/>
        </mxCell>
        <mxCell id="3s_GA88vPy6kbgtBsulU-13" value="Create Quotation" style="rounded=1;whiteSpace=wrap;html=1;" parent="3s_GA88vPy6kbgtBsulU-1" vertex="1">
          <mxGeometry x="139" y="113" width="90" height="50" as="geometry"/>
        </mxCell>
        <mxCell id="3s_GA88vPy6kbgtBsulU-14" value="Customer Inquiry" style="rounded=1;whiteSpace=wrap;html=1;" parent="3s_GA88vPy6kbgtBsulU-1" vertex="1">
          <mxGeometry x="140" y="45" width="90" height="50" as="geometry"/>
        </mxCell>
        <mxCell id="3s_GA88vPy6kbgtBsulU-15" value="Customer Meeting" style="rounded=1;whiteSpace=wrap;html=1;" parent="3s_GA88vPy6kbgtBsulU-1" vertex="1">
          <mxGeometry x="240" y="45" width="90" height="50" as="geometry"/>
        </mxCell>
        <mxCell id="3s_GA88vPy6kbgtBsulU-19" value="Delivery" style="rounded=1;whiteSpace=wrap;html=1;" parent="3s_GA88vPy6kbgtBsulU-1" vertex="1">
          <mxGeometry x="138" y="188" width="90" height="50" as="geometry"/>
        </mxCell>
        <mxCell id="3s_GA88vPy6kbgtBsulU-20" value="Review" style="rounded=1;whiteSpace=wrap;html=1;" parent="3s_GA88vPy6kbgtBsulU-1" vertex="1">
          <mxGeometry x="241" y="113" width="90" height="50" as="geometry"/>
        </mxCell>
        <mxCell id="3s_GA88vPy6kbgtBsulU-21" value="" style="shape=image;html=1;verticalAlign=top;verticalLabelPosition=bottom;labelBackgroundColor=#ffffff;imageAspect=0;aspect=fixed;image=https://cdn0.iconfinder.com/data/icons/feather/96/circle-cross-128.png;glass=0;comic=0;opacity=70;align=left;" parent="3s_GA88vPy6kbgtBsulU-1" vertex="1">
          <mxGeometry x="159.5" y="325" width="49" height="49" as="geometry"/>
        </mxCell>
        <mxCell id="zezOELQc1XZWE_5BxkaF-0" value="" style="rounded=1;whiteSpace=wrap;html=1;align=left;fillColor=#ffcccc;strokeColor=#36393d;opacity=30;fontStyle=1" parent="3s_GA88vPy6kbgtBsulU-1" vertex="1">
          <mxGeometry x="10" y="251" width="500" height="60" as="geometry"/>
        </mxCell>
        <mxCell id="zezOELQc1XZWE_5BxkaF-1" value="Installation" style="rounded=1;whiteSpace=wrap;html=1;" parent="3s_GA88vPy6kbgtBsulU-1" vertex="1">
          <mxGeometry x="136" y="254.5" width="90" height="50" as="geometry"/>
        </mxCell>
        <mxCell id="zezOELQc1XZWE_5BxkaF-2" value="&lt;span style=&quot;font-size: 18px&quot;&gt;Installation&lt;/span&gt;" style="text;html=1;resizable=0;points=[];autosize=1;align=left;verticalAlign=top;spacingTop=-4;fontStyle=1" parent="3s_GA88vPy6kbgtBsulU-1" vertex="1">
          <mxGeometry x="21" y="262" width="100" height="20" as="geometry"/>
        </mxCell>
        <mxCell id="5jTFcNILYf98TKXAlbIz-0" value="Aftersales" style="rounded=1;whiteSpace=wrap;html=1;" parent="3s_GA88vPy6kbgtBsulU-1" vertex="1">
          <mxGeometry x="139" y="398" width="90" height="50" as="geometry"/>
        </mxCell>
      </root>
    </mxGraphModel>
  </diagram>
  <diagram name="Franchise/Dealers - Denmark" id="iSP7X498sjsksWH1JmcS">
    <mxGraphModel dx="1165" dy="502" grid="1" gridSize="10" guides="1" tooltips="1" connect="1" arrows="1" fold="1" page="1" pageScale="1" pageWidth="827" pageHeight="1169" math="0" shadow="0">
      <root>
        <mxCell id="Uc-EwIyexGossrgZ57wj-0"/>
        <mxCell id="Uc-EwIyexGossrgZ57wj-1" parent="Uc-EwIyexGossrgZ57wj-0"/>
        <mxCell id="Uc-EwIyexGossrgZ57wj-2" value="&lt;font style=&quot;font-size: 14px&quot;&gt;Denmark&lt;/font&gt;" style="rounded=1;whiteSpace=wrap;html=1;fillColor=#ffcc99;strokeColor=none;verticalAlign=top;fontStyle=1;arcSize=4;" parent="Uc-EwIyexGossrgZ57wj-1" vertex="1">
          <mxGeometry x="125" width="375" height="470" as="geometry"/>
        </mxCell>
        <mxCell id="Uc-EwIyexGossrgZ57wj-3" value="" style="rounded=1;whiteSpace=wrap;html=1;align=left;fillColor=#ffcccc;strokeColor=#36393d;opacity=30;fontStyle=1" parent="Uc-EwIyexGossrgZ57wj-1" vertex="1">
          <mxGeometry x="10" y="111" width="500" height="60" as="geometry"/>
        </mxCell>
        <mxCell id="Uc-EwIyexGossrgZ57wj-4" value="" style="rounded=1;whiteSpace=wrap;html=1;align=left;fillColor=#ffcccc;strokeColor=#36393d;opacity=30;fontStyle=1" parent="Uc-EwIyexGossrgZ57wj-1" vertex="1">
          <mxGeometry x="10" y="40" width="500" height="60" as="geometry"/>
        </mxCell>
        <mxCell id="Uc-EwIyexGossrgZ57wj-5" value="&lt;font style=&quot;font-size: 18px&quot;&gt;Customer&amp;nbsp;&lt;br&gt;Engagement&lt;/font&gt;" style="text;html=1;resizable=0;points=[];autosize=1;align=left;verticalAlign=top;spacingTop=-4;fontStyle=1" parent="Uc-EwIyexGossrgZ57wj-1" vertex="1">
          <mxGeometry x="10" y="49" width="120" height="30" as="geometry"/>
        </mxCell>
        <mxCell id="Uc-EwIyexGossrgZ57wj-6" value="&lt;font style=&quot;font-size: 18px&quot;&gt;Manage&lt;br&gt;Quote/Order&lt;/font&gt;" style="text;html=1;resizable=0;points=[];autosize=1;align=left;verticalAlign=top;spacingTop=-4;fontStyle=1" parent="Uc-EwIyexGossrgZ57wj-1" vertex="1">
          <mxGeometry x="14" y="119" width="120" height="30" as="geometry"/>
        </mxCell>
        <mxCell id="Uc-EwIyexGossrgZ57wj-7" value="" style="rounded=1;whiteSpace=wrap;html=1;align=left;fillColor=#ffcccc;strokeColor=#36393d;opacity=30;fontStyle=1" parent="Uc-EwIyexGossrgZ57wj-1" vertex="1">
          <mxGeometry x="10" y="183" width="500" height="60" as="geometry"/>
        </mxCell>
        <mxCell id="Uc-EwIyexGossrgZ57wj-8" value="&lt;span style=&quot;font-size: 18px&quot;&gt;Manage &lt;br&gt;Delivery&lt;/span&gt;" style="text;html=1;resizable=0;points=[];autosize=1;align=left;verticalAlign=top;spacingTop=-4;fontStyle=1" parent="Uc-EwIyexGossrgZ57wj-1" vertex="1">
          <mxGeometry x="20" y="193" width="90" height="30" as="geometry"/>
        </mxCell>
        <mxCell id="Uc-EwIyexGossrgZ57wj-9" value="" style="rounded=1;whiteSpace=wrap;html=1;align=left;fillColor=#ffcccc;strokeColor=#36393d;opacity=30;fontStyle=1" parent="Uc-EwIyexGossrgZ57wj-1" vertex="1">
          <mxGeometry x="10" y="391" width="500" height="60" as="geometry"/>
        </mxCell>
        <mxCell id="Uc-EwIyexGossrgZ57wj-10" value="&lt;span style=&quot;font-size: 18px&quot;&gt;Aftercare&lt;/span&gt;" style="text;html=1;resizable=0;points=[];autosize=1;align=left;verticalAlign=top;spacingTop=-4;fontStyle=1" parent="Uc-EwIyexGossrgZ57wj-1" vertex="1">
          <mxGeometry x="20" y="403" width="90" height="20" as="geometry"/>
        </mxCell>
        <mxCell id="Uc-EwIyexGossrgZ57wj-11" value="" style="rounded=1;whiteSpace=wrap;html=1;align=left;fillColor=#ffcccc;strokeColor=#36393d;opacity=30;fontStyle=1" parent="Uc-EwIyexGossrgZ57wj-1" vertex="1">
          <mxGeometry x="10" y="322" width="500" height="60" as="geometry"/>
        </mxCell>
        <mxCell id="Uc-EwIyexGossrgZ57wj-12" value="&lt;span style=&quot;font-size: 18px&quot;&gt;Billing&lt;/span&gt;" style="text;html=1;resizable=0;points=[];autosize=1;align=left;verticalAlign=top;spacingTop=-4;fontStyle=1" parent="Uc-EwIyexGossrgZ57wj-1" vertex="1">
          <mxGeometry x="20" y="334" width="60" height="20" as="geometry"/>
        </mxCell>
        <mxCell id="Uc-EwIyexGossrgZ57wj-13" value="Create Quotation" style="rounded=1;whiteSpace=wrap;html=1;" parent="Uc-EwIyexGossrgZ57wj-1" vertex="1">
          <mxGeometry x="139" y="115" width="90" height="50" as="geometry"/>
        </mxCell>
        <mxCell id="Uc-EwIyexGossrgZ57wj-14" value="Customer Inquiry" style="rounded=1;whiteSpace=wrap;html=1;" parent="Uc-EwIyexGossrgZ57wj-1" vertex="1">
          <mxGeometry x="140" y="45" width="90" height="50" as="geometry"/>
        </mxCell>
        <mxCell id="Uc-EwIyexGossrgZ57wj-15" value="Customer Meeting" style="rounded=1;whiteSpace=wrap;html=1;" parent="Uc-EwIyexGossrgZ57wj-1" vertex="1">
          <mxGeometry x="240" y="45" width="90" height="50" as="geometry"/>
        </mxCell>
        <mxCell id="Uc-EwIyexGossrgZ57wj-16" value="Delivery" style="rounded=1;whiteSpace=wrap;html=1;" parent="Uc-EwIyexGossrgZ57wj-1" vertex="1">
          <mxGeometry x="138" y="188" width="90" height="50" as="geometry"/>
        </mxCell>
        <mxCell id="Uc-EwIyexGossrgZ57wj-17" value="Transform Quote to Order" style="rounded=1;whiteSpace=wrap;html=1;" parent="Uc-EwIyexGossrgZ57wj-1" vertex="1">
          <mxGeometry x="241" y="115" width="90" height="50" as="geometry"/>
        </mxCell>
        <mxCell id="Uc-EwIyexGossrgZ57wj-19" value="" style="rounded=1;whiteSpace=wrap;html=1;align=left;fillColor=#ffcccc;strokeColor=#36393d;opacity=30;fontStyle=1" parent="Uc-EwIyexGossrgZ57wj-1" vertex="1">
          <mxGeometry x="10" y="251" width="500" height="60" as="geometry"/>
        </mxCell>
        <mxCell id="Uc-EwIyexGossrgZ57wj-21" value="&lt;span style=&quot;font-size: 18px&quot;&gt;Installation&lt;/span&gt;" style="text;html=1;resizable=0;points=[];autosize=1;align=left;verticalAlign=top;spacingTop=-4;fontStyle=1" parent="Uc-EwIyexGossrgZ57wj-1" vertex="1">
          <mxGeometry x="21" y="262" width="100" height="20" as="geometry"/>
        </mxCell>
        <mxCell id="Uc-EwIyexGossrgZ57wj-23" value="Customer Followup" style="rounded=1;whiteSpace=wrap;html=1;" parent="Uc-EwIyexGossrgZ57wj-1" vertex="1">
          <mxGeometry x="350" y="45" width="90" height="50" as="geometry"/>
        </mxCell>
        <mxCell id="Uc-EwIyexGossrgZ57wj-24" value="Post Processing" style="rounded=1;whiteSpace=wrap;html=1;" parent="Uc-EwIyexGossrgZ57wj-1" vertex="1">
          <mxGeometry x="350" y="116" width="90" height="50" as="geometry"/>
        </mxCell>
        <mxCell id="Uc-EwIyexGossrgZ57wj-25" value="Delivery Review" style="rounded=1;whiteSpace=wrap;html=1;" parent="Uc-EwIyexGossrgZ57wj-1" vertex="1">
          <mxGeometry x="241" y="188" width="90" height="50" as="geometry"/>
        </mxCell>
        <mxCell id="Uc-EwIyexGossrgZ57wj-26" value="" style="shape=image;html=1;verticalAlign=top;verticalLabelPosition=bottom;labelBackgroundColor=#ffffff;imageAspect=0;aspect=fixed;image=https://cdn0.iconfinder.com/data/icons/feather/96/circle-cross-128.png;glass=0;comic=0;opacity=70;align=left;" parent="Uc-EwIyexGossrgZ57wj-1" vertex="1">
          <mxGeometry x="158.5" y="255.5" width="49" height="49" as="geometry"/>
        </mxCell>
        <mxCell id="Uc-EwIyexGossrgZ57wj-27" value="" style="shape=image;html=1;verticalAlign=top;verticalLabelPosition=bottom;labelBackgroundColor=#ffffff;imageAspect=0;aspect=fixed;image=https://cdn0.iconfinder.com/data/icons/feather/96/circle-cross-128.png;glass=0;comic=0;opacity=70;align=left;" parent="Uc-EwIyexGossrgZ57wj-1" vertex="1">
          <mxGeometry x="160" y="396.5" width="49" height="49" as="geometry"/>
        </mxCell>
        <mxCell id="Uc-EwIyexGossrgZ57wj-28" value="Franchise Invoicing" style="rounded=1;whiteSpace=wrap;html=1;" parent="Uc-EwIyexGossrgZ57wj-1" vertex="1">
          <mxGeometry x="140" y="327" width="90" height="50" as="geometry"/>
        </mxCell>
      </root>
    </mxGraphModel>
  </diagram>
  <diagram name="Franchise/Dealers - Norway" id="nWEI6pUTMMfoTnyNLg3H">
    <mxGraphModel dx="1165" dy="502" grid="1" gridSize="10" guides="1" tooltips="1" connect="1" arrows="1" fold="1" page="1" pageScale="1" pageWidth="827" pageHeight="1169" math="0" shadow="0">
      <root>
        <mxCell id="iN32VB4EJ60_Ma5Y75BV-0"/>
        <mxCell id="iN32VB4EJ60_Ma5Y75BV-1" parent="iN32VB4EJ60_Ma5Y75BV-0"/>
        <mxCell id="iN32VB4EJ60_Ma5Y75BV-2" value="&lt;font style=&quot;font-size: 14px&quot;&gt;Norway&lt;/font&gt;" style="rounded=1;whiteSpace=wrap;html=1;fillColor=#ffcc99;strokeColor=none;verticalAlign=top;fontStyle=1;arcSize=4;" parent="iN32VB4EJ60_Ma5Y75BV-1" vertex="1">
          <mxGeometry x="130" width="370" height="590" as="geometry"/>
        </mxCell>
        <mxCell id="yEftJRcm6W_9Z5BpsMYD-1" value="" style="group" parent="iN32VB4EJ60_Ma5Y75BV-1" vertex="1" connectable="0">
          <mxGeometry x="11" y="519" width="500" height="63" as="geometry"/>
        </mxCell>
        <mxCell id="yEftJRcm6W_9Z5BpsMYD-0" value="" style="group" parent="yEftJRcm6W_9Z5BpsMYD-1" vertex="1" connectable="0">
          <mxGeometry width="500" height="63" as="geometry"/>
        </mxCell>
        <mxCell id="iN32VB4EJ60_Ma5Y75BV-9" value="" style="rounded=1;whiteSpace=wrap;html=1;align=left;fillColor=#ffcccc;strokeColor=#36393d;opacity=30;fontStyle=1" parent="yEftJRcm6W_9Z5BpsMYD-0" vertex="1">
          <mxGeometry y="1" width="500" height="60" as="geometry"/>
        </mxCell>
        <mxCell id="iN32VB4EJ60_Ma5Y75BV-10" value="&lt;span style=&quot;font-size: 18px&quot;&gt;Aftercare&lt;/span&gt;" style="text;html=1;resizable=0;points=[];autosize=1;align=left;verticalAlign=top;spacingTop=-4;fontStyle=1" parent="yEftJRcm6W_9Z5BpsMYD-0" vertex="1">
          <mxGeometry x="10" y="13" width="90" height="20" as="geometry"/>
        </mxCell>
        <mxCell id="1oyWoaSC1qMCCln9TPO0-0" value="Claims Management" style="rounded=1;whiteSpace=wrap;html=1;" vertex="1" parent="yEftJRcm6W_9Z5BpsMYD-0">
          <mxGeometry x="127" y="6" width="90" height="50" as="geometry"/>
        </mxCell>
        <mxCell id="yEftJRcm6W_9Z5BpsMYD-8" value="" style="rounded=1;whiteSpace=wrap;html=1;align=left;fillColor=#ffcccc;strokeColor=#36393d;opacity=30;fontStyle=1" parent="iN32VB4EJ60_Ma5Y75BV-1" vertex="1">
          <mxGeometry x="10" y="40" width="500" height="60" as="geometry"/>
        </mxCell>
        <mxCell id="BVuUhrk-fzwJOf0ERj8F-0" value="&lt;span style=&quot;font-size: 18px&quot;&gt;Planning and&amp;nbsp;&lt;br&gt;Control&lt;br&gt;&lt;/span&gt;" style="text;html=1;resizable=0;points=[];autosize=1;align=left;verticalAlign=top;spacingTop=-4;fontStyle=1" parent="iN32VB4EJ60_Ma5Y75BV-1" vertex="1">
          <mxGeometry x="15" y="55" width="130" height="30" as="geometry"/>
        </mxCell>
        <mxCell id="iN32VB4EJ60_Ma5Y75BV-4" value="" style="rounded=1;whiteSpace=wrap;html=1;align=left;fillColor=#ffcccc;strokeColor=#36393d;opacity=30;fontStyle=1" parent="iN32VB4EJ60_Ma5Y75BV-1" vertex="1">
          <mxGeometry x="10" y="110" width="500" height="60" as="geometry"/>
        </mxCell>
        <mxCell id="iN32VB4EJ60_Ma5Y75BV-5" value="&lt;font style=&quot;font-size: 18px&quot;&gt;Customer&amp;nbsp;&lt;br&gt;Engagement&lt;/font&gt;" style="text;html=1;resizable=0;points=[];autosize=1;align=left;verticalAlign=top;spacingTop=-4;fontStyle=1" parent="iN32VB4EJ60_Ma5Y75BV-1" vertex="1">
          <mxGeometry x="10" y="119" width="120" height="30" as="geometry"/>
        </mxCell>
        <mxCell id="iN32VB4EJ60_Ma5Y75BV-3" value="" style="rounded=1;whiteSpace=wrap;html=1;align=left;fillColor=#ffcccc;strokeColor=#36393d;opacity=30;fontStyle=1" parent="iN32VB4EJ60_Ma5Y75BV-1" vertex="1">
          <mxGeometry x="10" y="246" width="500" height="60" as="geometry"/>
        </mxCell>
        <mxCell id="iN32VB4EJ60_Ma5Y75BV-6" value="&lt;font style=&quot;font-size: 18px&quot;&gt;Manage&lt;br&gt;Quote/Order&lt;/font&gt;" style="text;html=1;resizable=0;points=[];autosize=1;align=left;verticalAlign=top;spacingTop=-4;fontStyle=1" parent="iN32VB4EJ60_Ma5Y75BV-1" vertex="1">
          <mxGeometry x="14" y="254" width="120" height="30" as="geometry"/>
        </mxCell>
        <mxCell id="iN32VB4EJ60_Ma5Y75BV-13" value="Create Quotation" style="rounded=1;whiteSpace=wrap;html=1;" parent="iN32VB4EJ60_Ma5Y75BV-1" vertex="1">
          <mxGeometry x="139" y="250" width="90" height="50" as="geometry"/>
        </mxCell>
        <mxCell id="iN32VB4EJ60_Ma5Y75BV-17" value="Order Processing" style="rounded=1;whiteSpace=wrap;html=1;" parent="iN32VB4EJ60_Ma5Y75BV-1" vertex="1">
          <mxGeometry x="241" y="250" width="90" height="50" as="geometry"/>
        </mxCell>
        <mxCell id="iN32VB4EJ60_Ma5Y75BV-21" value="Group Project Orders" style="rounded=1;whiteSpace=wrap;html=1;" parent="iN32VB4EJ60_Ma5Y75BV-1" vertex="1">
          <mxGeometry x="350" y="251" width="90" height="50" as="geometry"/>
        </mxCell>
        <mxCell id="iN32VB4EJ60_Ma5Y75BV-7" value="" style="rounded=1;whiteSpace=wrap;html=1;align=left;fillColor=#ffcccc;strokeColor=#36393d;opacity=30;fontStyle=1" parent="iN32VB4EJ60_Ma5Y75BV-1" vertex="1">
          <mxGeometry x="10" y="315" width="500" height="60" as="geometry"/>
        </mxCell>
        <mxCell id="iN32VB4EJ60_Ma5Y75BV-8" value="&lt;span style=&quot;font-size: 18px&quot;&gt;Manage &lt;br&gt;Delivery&lt;/span&gt;" style="text;html=1;resizable=0;points=[];autosize=1;align=left;verticalAlign=top;spacingTop=-4;fontStyle=1" parent="iN32VB4EJ60_Ma5Y75BV-1" vertex="1">
          <mxGeometry x="20" y="325" width="90" height="30" as="geometry"/>
        </mxCell>
        <mxCell id="iN32VB4EJ60_Ma5Y75BV-16" value="Delivery" style="rounded=1;whiteSpace=wrap;html=1;" parent="iN32VB4EJ60_Ma5Y75BV-1" vertex="1">
          <mxGeometry x="138" y="320" width="90" height="50" as="geometry"/>
        </mxCell>
        <mxCell id="iN32VB4EJ60_Ma5Y75BV-18" value="" style="rounded=1;whiteSpace=wrap;html=1;align=left;fillColor=#ffcccc;strokeColor=#36393d;opacity=30;fontStyle=1" parent="iN32VB4EJ60_Ma5Y75BV-1" vertex="1">
          <mxGeometry x="10" y="382" width="500" height="60" as="geometry"/>
        </mxCell>
        <mxCell id="iN32VB4EJ60_Ma5Y75BV-19" value="&lt;span style=&quot;font-size: 18px&quot;&gt;Installation&lt;/span&gt;" style="text;html=1;resizable=0;points=[];autosize=1;align=left;verticalAlign=top;spacingTop=-4;fontStyle=1" parent="iN32VB4EJ60_Ma5Y75BV-1" vertex="1">
          <mxGeometry x="21" y="393" width="100" height="20" as="geometry"/>
        </mxCell>
        <mxCell id="iN32VB4EJ60_Ma5Y75BV-23" value="" style="shape=image;html=1;verticalAlign=top;verticalLabelPosition=bottom;labelBackgroundColor=#ffffff;imageAspect=0;aspect=fixed;image=https://cdn0.iconfinder.com/data/icons/feather/96/circle-cross-128.png;glass=0;comic=0;opacity=70;align=left;" parent="iN32VB4EJ60_Ma5Y75BV-1" vertex="1">
          <mxGeometry x="158.5" y="386.5" width="49" height="49" as="geometry"/>
        </mxCell>
        <mxCell id="iN32VB4EJ60_Ma5Y75BV-11" value="" style="rounded=1;whiteSpace=wrap;html=1;align=left;fillColor=#ffcccc;strokeColor=#36393d;opacity=30;fontStyle=1" parent="iN32VB4EJ60_Ma5Y75BV-1" vertex="1">
          <mxGeometry x="10" y="451.5" width="500" height="60" as="geometry"/>
        </mxCell>
        <mxCell id="iN32VB4EJ60_Ma5Y75BV-12" value="&lt;span style=&quot;font-size: 18px&quot;&gt;Billing&lt;/span&gt;" style="text;html=1;resizable=0;points=[];autosize=1;align=left;verticalAlign=top;spacingTop=-4;fontStyle=1" parent="iN32VB4EJ60_Ma5Y75BV-1" vertex="1">
          <mxGeometry x="20" y="463.5" width="60" height="20" as="geometry"/>
        </mxCell>
        <mxCell id="iN32VB4EJ60_Ma5Y75BV-25" value="Franchise Invoicing" style="rounded=1;whiteSpace=wrap;html=1;" parent="iN32VB4EJ60_Ma5Y75BV-1" vertex="1">
          <mxGeometry x="140" y="456.5" width="90" height="50" as="geometry"/>
        </mxCell>
        <mxCell id="BVuUhrk-fzwJOf0ERj8F-5" value="Sales Forecasting" style="rounded=1;whiteSpace=wrap;html=1;" parent="iN32VB4EJ60_Ma5Y75BV-1" vertex="1">
          <mxGeometry x="145" y="45" width="70" height="50" as="geometry"/>
        </mxCell>
        <mxCell id="BVuUhrk-fzwJOf0ERj8F-3" value="" style="shape=image;html=1;verticalAlign=top;verticalLabelPosition=bottom;labelBackgroundColor=#ffffff;imageAspect=0;aspect=fixed;image=https://cdn4.iconfinder.com/data/icons/aiga-symbol-signs/444/aiga_information-128.png" parent="iN32VB4EJ60_Ma5Y75BV-1" vertex="1">
          <mxGeometry x="201" y="41" width="29" height="29" as="geometry"/>
        </mxCell>
        <mxCell id="yrbhSeHvNKzMPg5_4LjI-0" value="Project Control?" style="rounded=1;whiteSpace=wrap;html=1;" parent="iN32VB4EJ60_Ma5Y75BV-1" vertex="1">
          <mxGeometry x="245" y="45" width="70" height="50" as="geometry"/>
        </mxCell>
        <mxCell id="yrbhSeHvNKzMPg5_4LjI-1" value="" style="shape=image;html=1;verticalAlign=top;verticalLabelPosition=bottom;labelBackgroundColor=#ffffff;imageAspect=0;aspect=fixed;image=https://cdn4.iconfinder.com/data/icons/aiga-symbol-signs/444/aiga_information-128.png" parent="iN32VB4EJ60_Ma5Y75BV-1" vertex="1">
          <mxGeometry x="302" y="40.5" width="29" height="29" as="geometry"/>
        </mxCell>
        <mxCell id="yrbhSeHvNKzMPg5_4LjI-2" value="Lime CRM?" style="rounded=1;whiteSpace=wrap;html=1;" parent="iN32VB4EJ60_Ma5Y75BV-1" vertex="1">
          <mxGeometry x="145.5" y="115" width="70" height="50" as="geometry"/>
        </mxCell>
        <mxCell id="yrbhSeHvNKzMPg5_4LjI-3" value="" style="shape=image;html=1;verticalAlign=top;verticalLabelPosition=bottom;labelBackgroundColor=#ffffff;imageAspect=0;aspect=fixed;image=https://cdn4.iconfinder.com/data/icons/aiga-symbol-signs/444/aiga_information-128.png" parent="iN32VB4EJ60_Ma5Y75BV-1" vertex="1">
          <mxGeometry x="206" y="111" width="29" height="29" as="geometry"/>
        </mxCell>
        <mxCell id="yrbhSeHvNKzMPg5_4LjI-4" value="" style="shape=image;html=1;verticalAlign=top;verticalLabelPosition=bottom;labelBackgroundColor=#ffffff;imageAspect=0;aspect=fixed;image=https://cdn4.iconfinder.com/data/icons/aiga-symbol-signs/444/aiga_information-128.png" parent="iN32VB4EJ60_Ma5Y75BV-1" vertex="1">
          <mxGeometry x="209" y="250" width="29" height="29" as="geometry"/>
        </mxCell>
        <mxCell id="RqiwvDwk_auI85hiO15V-0" value="" style="rounded=1;whiteSpace=wrap;html=1;align=left;fillColor=#ffcccc;strokeColor=#36393d;opacity=30;fontStyle=1" parent="iN32VB4EJ60_Ma5Y75BV-1" vertex="1">
          <mxGeometry x="10" y="176" width="500" height="60" as="geometry"/>
        </mxCell>
        <mxCell id="RqiwvDwk_auI85hiO15V-1" value="&lt;span style=&quot;font-size: 18px&quot;&gt;Tender&lt;/span&gt;" style="text;html=1;resizable=0;points=[];autosize=1;align=left;verticalAlign=top;spacingTop=-4;fontStyle=1" parent="iN32VB4EJ60_Ma5Y75BV-1" vertex="1">
          <mxGeometry x="11" y="191" width="70" height="20" as="geometry"/>
        </mxCell>
        <mxCell id="RqiwvDwk_auI85hiO15V-2" value="Manage Pricing" style="rounded=1;whiteSpace=wrap;html=1;" parent="iN32VB4EJ60_Ma5Y75BV-1" vertex="1">
          <mxGeometry x="145" y="180.5" width="70" height="50" as="geometry"/>
        </mxCell>
        <mxCell id="fol_QLLr_4OyMMISZSCl-0" value="" style="shape=image;html=1;verticalAlign=top;verticalLabelPosition=bottom;labelBackgroundColor=#ffffff;imageAspect=0;aspect=fixed;image=https://cdn4.iconfinder.com/data/icons/aiga-symbol-signs/444/aiga_information-128.png" parent="iN32VB4EJ60_Ma5Y75BV-1" vertex="1">
          <mxGeometry x="201" y="176" width="29" height="29" as="geometry"/>
        </mxCell>
      </root>
    </mxGraphModel>
  </diagram>
  <diagram name="Retail - Denmark" id="dDPjjSJ_HraIBjLIniL8">
    <mxGraphModel dx="925" dy="502" grid="1" gridSize="10" guides="1" tooltips="1" connect="1" arrows="1" fold="1" page="1" pageScale="1" pageWidth="827" pageHeight="1169" math="0" shadow="0">
      <root>
        <mxCell id="K8R0VyLlLbgDoT9CJpfU-0"/>
        <mxCell id="K8R0VyLlLbgDoT9CJpfU-1" parent="K8R0VyLlLbgDoT9CJpfU-0"/>
        <mxCell id="K8R0VyLlLbgDoT9CJpfU-2" value="&lt;font style=&quot;font-size: 14px&quot;&gt;Denmark&lt;/font&gt;" style="rounded=1;whiteSpace=wrap;html=1;fillColor=#ffcc99;strokeColor=none;verticalAlign=top;fontStyle=1;arcSize=4;" parent="K8R0VyLlLbgDoT9CJpfU-1" vertex="1">
          <mxGeometry x="125" width="375" height="470" as="geometry"/>
        </mxCell>
        <mxCell id="K8R0VyLlLbgDoT9CJpfU-3" value="" style="rounded=1;whiteSpace=wrap;html=1;align=left;fillColor=#ffcccc;strokeColor=#36393d;opacity=30;fontStyle=1" parent="K8R0VyLlLbgDoT9CJpfU-1" vertex="1">
          <mxGeometry x="10" y="111" width="500" height="60" as="geometry"/>
        </mxCell>
        <mxCell id="K8R0VyLlLbgDoT9CJpfU-4" value="" style="rounded=1;whiteSpace=wrap;html=1;align=left;fillColor=#ffcccc;strokeColor=#36393d;opacity=30;fontStyle=1" parent="K8R0VyLlLbgDoT9CJpfU-1" vertex="1">
          <mxGeometry x="10" y="40" width="500" height="60" as="geometry"/>
        </mxCell>
        <mxCell id="K8R0VyLlLbgDoT9CJpfU-5" value="&lt;font style=&quot;font-size: 18px&quot;&gt;Customer&amp;nbsp;&lt;br&gt;Engagement&lt;/font&gt;" style="text;html=1;resizable=0;points=[];autosize=1;align=left;verticalAlign=top;spacingTop=-4;fontStyle=1" parent="K8R0VyLlLbgDoT9CJpfU-1" vertex="1">
          <mxGeometry x="10" y="49" width="120" height="30" as="geometry"/>
        </mxCell>
        <mxCell id="K8R0VyLlLbgDoT9CJpfU-6" value="&lt;font style=&quot;font-size: 18px&quot;&gt;Manage&lt;br&gt;Quote/Order&lt;/font&gt;" style="text;html=1;resizable=0;points=[];autosize=1;align=left;verticalAlign=top;spacingTop=-4;fontStyle=1" parent="K8R0VyLlLbgDoT9CJpfU-1" vertex="1">
          <mxGeometry x="14" y="119" width="120" height="30" as="geometry"/>
        </mxCell>
        <mxCell id="K8R0VyLlLbgDoT9CJpfU-7" value="" style="rounded=1;whiteSpace=wrap;html=1;align=left;fillColor=#ffcccc;strokeColor=#36393d;opacity=30;fontStyle=1" parent="K8R0VyLlLbgDoT9CJpfU-1" vertex="1">
          <mxGeometry x="10" y="183" width="500" height="60" as="geometry"/>
        </mxCell>
        <mxCell id="K8R0VyLlLbgDoT9CJpfU-8" value="&lt;span style=&quot;font-size: 18px&quot;&gt;Manage &lt;br&gt;Delivery&lt;/span&gt;" style="text;html=1;resizable=0;points=[];autosize=1;align=left;verticalAlign=top;spacingTop=-4;fontStyle=1" parent="K8R0VyLlLbgDoT9CJpfU-1" vertex="1">
          <mxGeometry x="20" y="193" width="90" height="30" as="geometry"/>
        </mxCell>
        <mxCell id="K8R0VyLlLbgDoT9CJpfU-9" value="" style="rounded=1;whiteSpace=wrap;html=1;align=left;fillColor=#ffcccc;strokeColor=#36393d;opacity=30;fontStyle=1" parent="K8R0VyLlLbgDoT9CJpfU-1" vertex="1">
          <mxGeometry x="10" y="391" width="500" height="60" as="geometry"/>
        </mxCell>
        <mxCell id="K8R0VyLlLbgDoT9CJpfU-10" value="&lt;span style=&quot;font-size: 18px&quot;&gt;Aftercare&lt;/span&gt;" style="text;html=1;resizable=0;points=[];autosize=1;align=left;verticalAlign=top;spacingTop=-4;fontStyle=1" parent="K8R0VyLlLbgDoT9CJpfU-1" vertex="1">
          <mxGeometry x="20" y="403" width="90" height="20" as="geometry"/>
        </mxCell>
        <mxCell id="K8R0VyLlLbgDoT9CJpfU-11" value="" style="rounded=1;whiteSpace=wrap;html=1;align=left;fillColor=#ffcccc;strokeColor=#36393d;opacity=30;fontStyle=1" parent="K8R0VyLlLbgDoT9CJpfU-1" vertex="1">
          <mxGeometry x="10" y="322" width="500" height="60" as="geometry"/>
        </mxCell>
        <mxCell id="K8R0VyLlLbgDoT9CJpfU-12" value="&lt;span style=&quot;font-size: 18px&quot;&gt;Billing&lt;/span&gt;" style="text;html=1;resizable=0;points=[];autosize=1;align=left;verticalAlign=top;spacingTop=-4;fontStyle=1" parent="K8R0VyLlLbgDoT9CJpfU-1" vertex="1">
          <mxGeometry x="20" y="334" width="60" height="20" as="geometry"/>
        </mxCell>
        <mxCell id="K8R0VyLlLbgDoT9CJpfU-13" value="Create Quotation" style="rounded=1;whiteSpace=wrap;html=1;" parent="K8R0VyLlLbgDoT9CJpfU-1" vertex="1">
          <mxGeometry x="139" y="115" width="90" height="50" as="geometry"/>
        </mxCell>
        <mxCell id="K8R0VyLlLbgDoT9CJpfU-14" value="Customer Inquiry" style="rounded=1;whiteSpace=wrap;html=1;" parent="K8R0VyLlLbgDoT9CJpfU-1" vertex="1">
          <mxGeometry x="140" y="45" width="90" height="50" as="geometry"/>
        </mxCell>
        <mxCell id="K8R0VyLlLbgDoT9CJpfU-15" value="Customer Meeting" style="rounded=1;whiteSpace=wrap;html=1;" parent="K8R0VyLlLbgDoT9CJpfU-1" vertex="1">
          <mxGeometry x="240" y="45" width="90" height="50" as="geometry"/>
        </mxCell>
        <mxCell id="K8R0VyLlLbgDoT9CJpfU-16" value="Delivery" style="rounded=1;whiteSpace=wrap;html=1;" parent="K8R0VyLlLbgDoT9CJpfU-1" vertex="1">
          <mxGeometry x="138" y="188" width="90" height="50" as="geometry"/>
        </mxCell>
        <mxCell id="K8R0VyLlLbgDoT9CJpfU-17" value="Transform Quote to Order" style="rounded=1;whiteSpace=wrap;html=1;" parent="K8R0VyLlLbgDoT9CJpfU-1" vertex="1">
          <mxGeometry x="241" y="115" width="90" height="50" as="geometry"/>
        </mxCell>
        <mxCell id="K8R0VyLlLbgDoT9CJpfU-18" value="" style="rounded=1;whiteSpace=wrap;html=1;align=left;fillColor=#ffcccc;strokeColor=#36393d;opacity=30;fontStyle=1" parent="K8R0VyLlLbgDoT9CJpfU-1" vertex="1">
          <mxGeometry x="10" y="251" width="500" height="60" as="geometry"/>
        </mxCell>
        <mxCell id="K8R0VyLlLbgDoT9CJpfU-19" value="&lt;span style=&quot;font-size: 18px&quot;&gt;Installation&lt;/span&gt;" style="text;html=1;resizable=0;points=[];autosize=1;align=left;verticalAlign=top;spacingTop=-4;fontStyle=1" parent="K8R0VyLlLbgDoT9CJpfU-1" vertex="1">
          <mxGeometry x="21" y="262" width="100" height="20" as="geometry"/>
        </mxCell>
        <mxCell id="K8R0VyLlLbgDoT9CJpfU-20" value="Customer Followup" style="rounded=1;whiteSpace=wrap;html=1;" parent="K8R0VyLlLbgDoT9CJpfU-1" vertex="1">
          <mxGeometry x="350" y="45" width="90" height="50" as="geometry"/>
        </mxCell>
        <mxCell id="K8R0VyLlLbgDoT9CJpfU-21" value="Post Processing" style="rounded=1;whiteSpace=wrap;html=1;" parent="K8R0VyLlLbgDoT9CJpfU-1" vertex="1">
          <mxGeometry x="350" y="116" width="90" height="50" as="geometry"/>
        </mxCell>
        <mxCell id="K8R0VyLlLbgDoT9CJpfU-22" value="Delivery Review" style="rounded=1;whiteSpace=wrap;html=1;" parent="K8R0VyLlLbgDoT9CJpfU-1" vertex="1">
          <mxGeometry x="241" y="188" width="90" height="50" as="geometry"/>
        </mxCell>
        <mxCell id="K8R0VyLlLbgDoT9CJpfU-23" value="" style="shape=image;html=1;verticalAlign=top;verticalLabelPosition=bottom;labelBackgroundColor=#ffffff;imageAspect=0;aspect=fixed;image=https://cdn0.iconfinder.com/data/icons/feather/96/circle-cross-128.png;glass=0;comic=0;opacity=70;align=left;" parent="K8R0VyLlLbgDoT9CJpfU-1" vertex="1">
          <mxGeometry x="158.5" y="255.5" width="49" height="49" as="geometry"/>
        </mxCell>
        <mxCell id="K8R0VyLlLbgDoT9CJpfU-24" value="" style="shape=image;html=1;verticalAlign=top;verticalLabelPosition=bottom;labelBackgroundColor=#ffffff;imageAspect=0;aspect=fixed;image=https://cdn0.iconfinder.com/data/icons/feather/96/circle-cross-128.png;glass=0;comic=0;opacity=70;align=left;" parent="K8R0VyLlLbgDoT9CJpfU-1" vertex="1">
          <mxGeometry x="160" y="396.5" width="49" height="49" as="geometry"/>
        </mxCell>
        <mxCell id="K8R0VyLlLbgDoT9CJpfU-25" value="Retail Invoicing" style="rounded=1;whiteSpace=wrap;html=1;" parent="K8R0VyLlLbgDoT9CJpfU-1" vertex="1">
          <mxGeometry x="140" y="327" width="90" height="50" as="geometry"/>
        </mxCell>
      </root>
    </mxGraphModel>
  </diagram>
  <diagram name="Retail - Sweden" id="jgpyzCGa6hujhbnfkME9">
    <mxGraphModel dx="925" dy="502" grid="1" gridSize="10" guides="1" tooltips="1" connect="1" arrows="1" fold="1" page="1" pageScale="1" pageWidth="827" pageHeight="1169" math="0" shadow="0">
      <root>
        <mxCell id="pPq8eBLnsdA6746QXGmP-0"/>
        <mxCell id="pPq8eBLnsdA6746QXGmP-1" parent="pPq8eBLnsdA6746QXGmP-0"/>
        <mxCell id="pPq8eBLnsdA6746QXGmP-2" value="&lt;font style=&quot;font-size: 14px&quot;&gt;Sweden&lt;/font&gt;" style="rounded=1;whiteSpace=wrap;html=1;fillColor=#ffcc99;strokeColor=none;verticalAlign=top;fontStyle=1;arcSize=4;" vertex="1" parent="pPq8eBLnsdA6746QXGmP-1">
          <mxGeometry x="125" width="455" height="470" as="geometry"/>
        </mxCell>
        <mxCell id="pPq8eBLnsdA6746QXGmP-3" value="" style="rounded=1;whiteSpace=wrap;html=1;align=left;fillColor=#ffcccc;strokeColor=#36393d;opacity=30;fontStyle=1" vertex="1" parent="pPq8eBLnsdA6746QXGmP-1">
          <mxGeometry x="10" y="111" width="580" height="60" as="geometry"/>
        </mxCell>
        <mxCell id="pPq8eBLnsdA6746QXGmP-4" value="" style="rounded=1;whiteSpace=wrap;html=1;align=left;fillColor=#ffcccc;strokeColor=#36393d;opacity=30;fontStyle=1" vertex="1" parent="pPq8eBLnsdA6746QXGmP-1">
          <mxGeometry x="10" y="40" width="580" height="60" as="geometry"/>
        </mxCell>
        <mxCell id="pPq8eBLnsdA6746QXGmP-5" value="&lt;font style=&quot;font-size: 18px&quot;&gt;Customer&amp;nbsp;&lt;br&gt;Engagement&lt;/font&gt;" style="text;html=1;resizable=0;points=[];autosize=1;align=left;verticalAlign=top;spacingTop=-4;fontStyle=1" vertex="1" parent="pPq8eBLnsdA6746QXGmP-1">
          <mxGeometry x="10" y="49" width="120" height="30" as="geometry"/>
        </mxCell>
        <mxCell id="pPq8eBLnsdA6746QXGmP-6" value="&lt;font style=&quot;font-size: 18px&quot;&gt;Manage&lt;br&gt;Quote/Order&lt;/font&gt;" style="text;html=1;resizable=0;points=[];autosize=1;align=left;verticalAlign=top;spacingTop=-4;fontStyle=1" vertex="1" parent="pPq8eBLnsdA6746QXGmP-1">
          <mxGeometry x="14" y="119" width="120" height="30" as="geometry"/>
        </mxCell>
        <mxCell id="pPq8eBLnsdA6746QXGmP-7" value="" style="rounded=1;whiteSpace=wrap;html=1;align=left;fillColor=#ffcccc;strokeColor=#36393d;opacity=30;fontStyle=1" vertex="1" parent="pPq8eBLnsdA6746QXGmP-1">
          <mxGeometry x="10" y="183" width="580" height="60" as="geometry"/>
        </mxCell>
        <mxCell id="pPq8eBLnsdA6746QXGmP-8" value="&lt;span style=&quot;font-size: 18px&quot;&gt;Manage &lt;br&gt;Delivery&lt;/span&gt;" style="text;html=1;resizable=0;points=[];autosize=1;align=left;verticalAlign=top;spacingTop=-4;fontStyle=1" vertex="1" parent="pPq8eBLnsdA6746QXGmP-1">
          <mxGeometry x="20" y="193" width="90" height="30" as="geometry"/>
        </mxCell>
        <mxCell id="pPq8eBLnsdA6746QXGmP-9" value="" style="rounded=1;whiteSpace=wrap;html=1;align=left;fillColor=#ffcccc;strokeColor=#36393d;opacity=30;fontStyle=1" vertex="1" parent="pPq8eBLnsdA6746QXGmP-1">
          <mxGeometry x="10" y="391" width="580" height="60" as="geometry"/>
        </mxCell>
        <mxCell id="pPq8eBLnsdA6746QXGmP-10" value="&lt;span style=&quot;font-size: 18px&quot;&gt;Aftercare&lt;/span&gt;" style="text;html=1;resizable=0;points=[];autosize=1;align=left;verticalAlign=top;spacingTop=-4;fontStyle=1" vertex="1" parent="pPq8eBLnsdA6746QXGmP-1">
          <mxGeometry x="20" y="403" width="90" height="20" as="geometry"/>
        </mxCell>
        <mxCell id="pPq8eBLnsdA6746QXGmP-11" value="" style="rounded=1;whiteSpace=wrap;html=1;align=left;fillColor=#ffcccc;strokeColor=#36393d;opacity=30;fontStyle=1" vertex="1" parent="pPq8eBLnsdA6746QXGmP-1">
          <mxGeometry x="10" y="322" width="580" height="60" as="geometry"/>
        </mxCell>
        <mxCell id="pPq8eBLnsdA6746QXGmP-12" value="&lt;span style=&quot;font-size: 18px&quot;&gt;Billing&lt;/span&gt;" style="text;html=1;resizable=0;points=[];autosize=1;align=left;verticalAlign=top;spacingTop=-4;fontStyle=1" vertex="1" parent="pPq8eBLnsdA6746QXGmP-1">
          <mxGeometry x="20" y="334" width="60" height="20" as="geometry"/>
        </mxCell>
        <mxCell id="pPq8eBLnsdA6746QXGmP-13" value="Draw Kitchen" style="rounded=1;whiteSpace=wrap;html=1;" vertex="1" parent="pPq8eBLnsdA6746QXGmP-1">
          <mxGeometry x="139" y="115" width="90" height="50" as="geometry"/>
        </mxCell>
        <mxCell id="pPq8eBLnsdA6746QXGmP-16" value="Manage Delivery Dates" style="rounded=1;whiteSpace=wrap;html=1;" vertex="1" parent="pPq8eBLnsdA6746QXGmP-1">
          <mxGeometry x="138" y="188" width="90" height="50" as="geometry"/>
        </mxCell>
        <mxCell id="pPq8eBLnsdA6746QXGmP-17" value="Transform Quote to Order" style="rounded=1;whiteSpace=wrap;html=1;" vertex="1" parent="pPq8eBLnsdA6746QXGmP-1">
          <mxGeometry x="368" y="116.5" width="90" height="50" as="geometry"/>
        </mxCell>
        <mxCell id="pPq8eBLnsdA6746QXGmP-18" value="" style="rounded=1;whiteSpace=wrap;html=1;align=left;fillColor=#ffcccc;strokeColor=#36393d;opacity=30;fontStyle=1" vertex="1" parent="pPq8eBLnsdA6746QXGmP-1">
          <mxGeometry x="10" y="251" width="580" height="60" as="geometry"/>
        </mxCell>
        <mxCell id="pPq8eBLnsdA6746QXGmP-19" value="&lt;span style=&quot;font-size: 18px&quot;&gt;Installation&lt;/span&gt;" style="text;html=1;resizable=0;points=[];autosize=1;align=left;verticalAlign=top;spacingTop=-4;fontStyle=1" vertex="1" parent="pPq8eBLnsdA6746QXGmP-1">
          <mxGeometry x="21" y="262" width="100" height="20" as="geometry"/>
        </mxCell>
        <mxCell id="pPq8eBLnsdA6746QXGmP-23" value="" style="shape=image;html=1;verticalAlign=top;verticalLabelPosition=bottom;labelBackgroundColor=#ffffff;imageAspect=0;aspect=fixed;image=https://cdn0.iconfinder.com/data/icons/feather/96/circle-cross-128.png;glass=0;comic=0;opacity=70;align=left;" vertex="1" parent="pPq8eBLnsdA6746QXGmP-1">
          <mxGeometry x="158.5" y="255.5" width="49" height="49" as="geometry"/>
        </mxCell>
        <mxCell id="pPq8eBLnsdA6746QXGmP-24" value="" style="shape=image;html=1;verticalAlign=top;verticalLabelPosition=bottom;labelBackgroundColor=#ffffff;imageAspect=0;aspect=fixed;image=https://cdn0.iconfinder.com/data/icons/feather/96/circle-cross-128.png;glass=0;comic=0;opacity=70;align=left;" vertex="1" parent="pPq8eBLnsdA6746QXGmP-1">
          <mxGeometry x="160" y="396.5" width="49" height="49" as="geometry"/>
        </mxCell>
        <mxCell id="pPq8eBLnsdA6746QXGmP-27" value="" style="shape=image;html=1;verticalAlign=top;verticalLabelPosition=bottom;labelBackgroundColor=#ffffff;imageAspect=0;aspect=fixed;image=https://cdn0.iconfinder.com/data/icons/feather/96/circle-cross-128.png;glass=0;comic=0;opacity=70;align=left;" vertex="1" parent="pPq8eBLnsdA6746QXGmP-1">
          <mxGeometry x="160" y="327.5" width="49" height="49" as="geometry"/>
        </mxCell>
        <mxCell id="pPq8eBLnsdA6746QXGmP-28" value="Monitor Orders" style="rounded=1;whiteSpace=wrap;html=1;" vertex="1" parent="pPq8eBLnsdA6746QXGmP-1">
          <mxGeometry x="480" y="116.5" width="90" height="50" as="geometry"/>
        </mxCell>
        <mxCell id="pPq8eBLnsdA6746QXGmP-29" value="" style="shape=image;html=1;verticalAlign=top;verticalLabelPosition=bottom;labelBackgroundColor=#ffffff;imageAspect=0;aspect=fixed;image=https://cdn0.iconfinder.com/data/icons/feather/96/circle-cross-128.png;glass=0;comic=0;opacity=70;align=left;" vertex="1" parent="pPq8eBLnsdA6746QXGmP-1">
          <mxGeometry x="159.5" y="45.5" width="49" height="49" as="geometry"/>
        </mxCell>
        <mxCell id="pPq8eBLnsdA6746QXGmP-30" value="Contract Management" style="rounded=1;whiteSpace=wrap;html=1;" vertex="1" parent="pPq8eBLnsdA6746QXGmP-1">
          <mxGeometry x="253.5" y="116.5" width="90" height="50" as="geometry"/>
        </mxCell>
      </root>
    </mxGraphModel>
  </diagram>
  <diagram name="Central Functions Denmark" id="8Cvu798KBt8wHriOgFqZ">
    <mxGraphModel dx="1992" dy="502" grid="1" gridSize="10" guides="1" tooltips="1" connect="1" arrows="1" fold="1" page="1" pageScale="1" pageWidth="827" pageHeight="1169" math="0" shadow="0">
      <root>
        <mxCell id="wJaxXMia0RvewiK1EqTo-0"/>
        <mxCell id="wJaxXMia0RvewiK1EqTo-1" parent="wJaxXMia0RvewiK1EqTo-0"/>
        <mxCell id="wJaxXMia0RvewiK1EqTo-2" value="&lt;font style=&quot;font-size: 14px&quot;&gt;Denmark&lt;/font&gt;" style="rounded=1;whiteSpace=wrap;html=1;fillColor=#ffcc99;strokeColor=none;verticalAlign=top;fontStyle=1;arcSize=4;" parent="wJaxXMia0RvewiK1EqTo-1" vertex="1">
          <mxGeometry x="125" width="315" height="390" as="geometry"/>
        </mxCell>
        <mxCell id="wJaxXMia0RvewiK1EqTo-3" value="" style="rounded=1;whiteSpace=wrap;html=1;align=left;fillColor=#ffcccc;strokeColor=#36393d;opacity=30;fontStyle=1" parent="wJaxXMia0RvewiK1EqTo-1" vertex="1">
          <mxGeometry x="-10" y="111" width="460" height="69" as="geometry"/>
        </mxCell>
        <mxCell id="wJaxXMia0RvewiK1EqTo-4" value="" style="rounded=1;whiteSpace=wrap;html=1;align=left;fillColor=#ffcccc;strokeColor=#36393d;opacity=30;fontStyle=1" parent="wJaxXMia0RvewiK1EqTo-1" vertex="1">
          <mxGeometry x="-10" y="40" width="460" height="60" as="geometry"/>
        </mxCell>
        <mxCell id="wJaxXMia0RvewiK1EqTo-5" value="&lt;span style=&quot;font-size: 18px&quot;&gt;Master Data&lt;br&gt;Management&lt;br&gt;&lt;/span&gt;" style="text;html=1;resizable=0;points=[];autosize=1;align=left;verticalAlign=top;spacingTop=-4;fontStyle=1" parent="wJaxXMia0RvewiK1EqTo-1" vertex="1">
          <mxGeometry x="-1" y="49" width="120" height="30" as="geometry"/>
        </mxCell>
        <mxCell id="wJaxXMia0RvewiK1EqTo-6" value="&lt;span style=&quot;font-size: 18px&quot;&gt;Discounts&lt;br&gt;and Contracts&lt;br&gt;Management&lt;/span&gt;" style="text;html=1;resizable=0;points=[];autosize=1;align=left;verticalAlign=top;spacingTop=-4;fontStyle=1" parent="wJaxXMia0RvewiK1EqTo-1" vertex="1">
          <mxGeometry x="-2" y="113" width="130" height="50" as="geometry"/>
        </mxCell>
        <mxCell id="wJaxXMia0RvewiK1EqTo-7" value="" style="rounded=1;whiteSpace=wrap;html=1;align=left;fillColor=#ffcccc;strokeColor=#36393d;opacity=30;fontStyle=1" parent="wJaxXMia0RvewiK1EqTo-1" vertex="1">
          <mxGeometry x="-10" y="183" width="460" height="60" as="geometry"/>
        </mxCell>
        <mxCell id="wJaxXMia0RvewiK1EqTo-8" value="&lt;span style=&quot;font-size: 18px&quot;&gt;Billing&lt;/span&gt;" style="text;html=1;resizable=0;points=[];autosize=1;align=left;verticalAlign=top;spacingTop=-4;fontStyle=1" parent="wJaxXMia0RvewiK1EqTo-1" vertex="1">
          <mxGeometry x="-2" y="197.5" width="60" height="20" as="geometry"/>
        </mxCell>
        <mxCell id="wJaxXMia0RvewiK1EqTo-11" value="" style="rounded=1;whiteSpace=wrap;html=1;align=left;fillColor=#ffcccc;strokeColor=#36393d;opacity=30;fontStyle=1" parent="wJaxXMia0RvewiK1EqTo-1" vertex="1">
          <mxGeometry x="-10" y="323" width="460" height="60" as="geometry"/>
        </mxCell>
        <mxCell id="wJaxXMia0RvewiK1EqTo-12" value="&lt;span style=&quot;font-size: 18px&quot;&gt;Reporting&lt;/span&gt;" style="text;html=1;resizable=0;points=[];autosize=1;align=left;verticalAlign=top;spacingTop=-4;fontStyle=1" parent="wJaxXMia0RvewiK1EqTo-1" vertex="1">
          <mxGeometry x="-2" y="334" width="90" height="20" as="geometry"/>
        </mxCell>
        <mxCell id="wJaxXMia0RvewiK1EqTo-13" value="Manage B2B Discount&amp;nbsp;&lt;br&gt;Agreements" style="rounded=1;whiteSpace=wrap;html=1;" parent="wJaxXMia0RvewiK1EqTo-1" vertex="1">
          <mxGeometry x="139" y="119" width="90" height="50" as="geometry"/>
        </mxCell>
        <mxCell id="wJaxXMia0RvewiK1EqTo-18" value="" style="rounded=1;whiteSpace=wrap;html=1;align=left;fillColor=#ffcccc;strokeColor=#36393d;opacity=30;fontStyle=1" parent="wJaxXMia0RvewiK1EqTo-1" vertex="1">
          <mxGeometry x="-10" y="251" width="460" height="60" as="geometry"/>
        </mxCell>
        <mxCell id="wJaxXMia0RvewiK1EqTo-19" value="&lt;span style=&quot;font-size: 18px&quot;&gt;Customer&lt;br&gt;Care&lt;/span&gt;" style="text;html=1;resizable=0;points=[];autosize=1;align=left;verticalAlign=top;spacingTop=-4;fontStyle=1" parent="wJaxXMia0RvewiK1EqTo-1" vertex="1">
          <mxGeometry x="-4" y="262" width="90" height="30" as="geometry"/>
        </mxCell>
        <mxCell id="wJaxXMia0RvewiK1EqTo-25" value="Retail Invoicing" style="rounded=1;whiteSpace=wrap;html=1;" parent="wJaxXMia0RvewiK1EqTo-1" vertex="1">
          <mxGeometry x="138" y="188" width="90" height="50" as="geometry"/>
        </mxCell>
        <mxCell id="y7BsOJurfipI0ZV20gua-0" value="Franchise Invoicing" style="rounded=1;whiteSpace=wrap;html=1;" parent="wJaxXMia0RvewiK1EqTo-1" vertex="1">
          <mxGeometry x="238" y="188.5" width="90" height="50" as="geometry"/>
        </mxCell>
        <mxCell id="y7BsOJurfipI0ZV20gua-1" value="Distribution Management" style="rounded=1;whiteSpace=wrap;html=1;" parent="wJaxXMia0RvewiK1EqTo-1" vertex="1">
          <mxGeometry x="139" y="255.5" width="90" height="50" as="geometry"/>
        </mxCell>
        <mxCell id="y7BsOJurfipI0ZV20gua-2" value="Order Management" style="rounded=1;whiteSpace=wrap;html=1;" parent="wJaxXMia0RvewiK1EqTo-1" vertex="1">
          <mxGeometry x="241" y="256" width="90" height="50" as="geometry"/>
        </mxCell>
        <mxCell id="y7BsOJurfipI0ZV20gua-3" value="Claims Management" style="rounded=1;whiteSpace=wrap;html=1;" parent="wJaxXMia0RvewiK1EqTo-1" vertex="1">
          <mxGeometry x="340" y="255.5" width="90" height="50" as="geometry"/>
        </mxCell>
        <mxCell id="y7BsOJurfipI0ZV20gua-4" value="Manage B2C Discount&amp;nbsp;&lt;br&gt;Agreements" style="rounded=1;whiteSpace=wrap;html=1;" parent="wJaxXMia0RvewiK1EqTo-1" vertex="1">
          <mxGeometry x="238" y="119" width="90" height="50" as="geometry"/>
        </mxCell>
        <mxCell id="y7BsOJurfipI0ZV20gua-5" value="Manage Product Data" style="rounded=1;whiteSpace=wrap;html=1;" parent="wJaxXMia0RvewiK1EqTo-1" vertex="1">
          <mxGeometry x="140" y="45" width="90" height="50" as="geometry"/>
        </mxCell>
        <mxCell id="y7BsOJurfipI0ZV20gua-7" value="BI" style="rounded=1;whiteSpace=wrap;html=1;" parent="wJaxXMia0RvewiK1EqTo-1" vertex="1">
          <mxGeometry x="140" y="328" width="90" height="50" as="geometry"/>
        </mxCell>
      </root>
    </mxGraphModel>
  </diagram>
</mxfile>
